<svg width="57" height="58" viewBox="0 0 57 58" fill="none" xmlns="http://www.w3.org/2000/svg">
<path fill-rule="evenodd" clip-rule="evenodd" d="M24.5125 8.04585C22.8631 9.99297 21.4861 11.6179 21.4525 11.6568C21.4525 11.6568 19.3049 11.5621 16.7547 11.3598C14.2044 11.1575 12.0947 11.0169 12.0664 11.0473C12.0382 11.0778 15.5017 14.5921 19.7633 18.857L27.5116 26.6114L27.5351 21.0987C27.5481 18.0668 27.5481 13.0929 27.5351 10.0458L27.5116 4.50562L24.5125 8.04585ZM37.9036 19.9986L30.1555 27.816H41.1245C48.0687 27.816 52.0823 27.7837 52.063 27.728C52.0464 27.6796 50.4441 26.2712 48.5026 24.5983L44.9724 21.5566L45.0182 21.1691C45.1136 20.3611 45.7051 12.4311 45.6791 12.3091C45.664 12.2388 42.1651 15.699 37.9036 19.9986ZM4.49951 29.3562C4.50316 29.4071 9.6215 33.8531 11.4284 35.3749L11.6144 35.5314L11.2472 40.197C11.0453 42.7631 10.9012 44.884 10.927 44.91C10.9803 44.9637 26.3721 29.4636 26.3721 29.3564C26.3721 29.3183 21.4497 29.2872 15.4334 29.2872C9.41704 29.2872 4.49678 29.3182 4.49951 29.3562ZM29.1068 41.514C29.1068 50.7829 29.1268 52.5691 29.2291 52.4563C29.2963 52.3823 30.6732 50.7596 32.2887 48.8504C33.9043 46.9413 35.2444 45.3792 35.2667 45.3792C35.2891 45.3792 37.3844 45.5456 39.923 45.749C42.4616 45.9524 44.5516 46.1059 44.5673 46.0899C44.5831 46.074 41.111 42.5456 36.8514 38.249L29.1068 30.437V41.514Z" fill="#E8580C"/>
<path fill-rule="evenodd" clip-rule="evenodd" d="M41.0827 29.3472L30.1242 29.3483L37.8804 37.1724C42.7907 42.1256 45.6514 44.9657 45.6768 44.9125C45.6989 44.8664 45.5532 42.7277 45.353 40.1599L44.989 35.491L45.293 35.2497C45.9268 34.7464 51.9037 29.561 51.9709 29.4561C52.0096 29.3957 47.1099 29.3466 41.0827 29.3472ZM10.903 12.1371C10.8698 12.1758 11.3726 18.9704 11.5835 21.3353L11.6053 21.5786L8.07517 24.6158C6.13365 26.2863 4.54503 27.6832 4.5451 27.7201C4.5451 27.796 26.294 27.8147 26.3691 27.7389C26.3958 27.7119 22.9369 24.1788 18.6827 19.8874C14.4285 15.596 10.9277 12.1083 10.903 12.1371Z" fill="#E8950C"/>
<path fill-rule="evenodd" clip-rule="evenodd" d="M27.4747 41.4421L27.4737 30.3877L19.7174 38.2119C14.8072 43.1651 11.9917 46.0508 12.0444 46.0765C12.0901 46.0988 14.2103 45.9517 16.7558 45.7498L21.3842 45.3826L21.6235 45.6893C22.1224 46.3287 27.2628 52.3578 27.3668 52.4256C27.4267 52.4646 27.4753 47.5221 27.4747 41.4421ZM44.5355 10.9984C44.4973 10.965 37.7615 11.4721 35.4171 11.6849L35.176 11.7068L32.1651 8.14582C30.5091 6.18731 29.1243 4.5848 29.0878 4.58486C29.0125 4.58486 28.994 26.524 29.0691 26.5998C29.0958 26.6268 32.5983 23.1376 36.8525 18.8462C41.1067 14.5548 44.5641 11.0233 44.5355 10.9984Z" fill="#FF7E00"/>
</svg>
