<svg width="17" height="16" viewBox="0 0 17 16" fill="none" xmlns="http://www.w3.org/2000/svg">
<g clip-path="url(#clip0_212_13137)">
<path d="M2.125 3.33C2.125 2.59533 2.75754 2 3.53812 2H13.4619C14.2425 2 14.875 2.59533 14.875 3.33V12.67C14.875 13.0227 14.7261 13.361 14.4611 13.6105C14.1961 13.8599 13.8367 14 13.4619 14H3.53812C3.16334 14 2.80391 13.8599 2.53889 13.6105C2.27388 13.361 2.125 13.0227 2.125 12.67V3.33ZM3.54167 3.33333V12.6667H13.4583V3.33333H3.54167ZM5.64683 12.12C5.2112 11.9424 4.79567 11.724 4.40654 11.468C4.85581 10.8127 5.47256 10.2739 6.20032 9.90096C6.92808 9.52803 7.74361 9.33287 8.57225 9.33333C10.2723 9.33333 11.7718 10.138 12.665 11.3647C12.2833 11.6304 11.8742 11.8593 11.4438 12.048C11.1158 11.62 10.6843 11.2715 10.1851 11.0314C9.68577 10.7912 9.13297 10.6662 8.57225 10.6667C7.35746 10.6667 6.28433 11.2427 5.64683 12.12ZM8.5 8.66667C8.17443 8.66667 7.85205 8.60631 7.55126 8.48905C7.25048 8.37179 6.97718 8.19992 6.74696 7.98325C6.51675 7.76658 6.33414 7.50935 6.20955 7.22626C6.08496 6.94317 6.02083 6.63975 6.02083 6.33333C6.02083 6.02692 6.08496 5.7235 6.20955 5.44041C6.33414 5.15731 6.51675 4.90009 6.74696 4.68342C6.97718 4.46675 7.25048 4.29488 7.55126 4.17761C7.85205 4.06035 8.17443 4 8.5 4C9.15752 4 9.7881 4.24583 10.253 4.68342C10.718 5.121 10.9792 5.71449 10.9792 6.33333C10.9792 6.95217 10.718 7.54566 10.253 7.98325C9.7881 8.42083 9.15752 8.66667 8.5 8.66667ZM8.5 7.33333C8.78179 7.33333 9.05204 7.22798 9.2513 7.04044C9.45056 6.8529 9.5625 6.59855 9.5625 6.33333C9.5625 6.06812 9.45056 5.81376 9.2513 5.62623C9.05204 5.43869 8.78179 5.33333 8.5 5.33333C8.21821 5.33333 7.94796 5.43869 7.7487 5.62623C7.54944 5.81376 7.4375 6.06812 7.4375 6.33333C7.4375 6.59855 7.54944 6.8529 7.7487 7.04044C7.94796 7.22798 8.21821 7.33333 8.5 7.33333Z" fill="black"/>
</g>
<defs>
<clipPath id="clip0_212_13137">
<rect width="17" height="16" fill="white"/>
</clipPath>
</defs>
</svg>
