<svg width="16" height="16" viewBox="0 0 16 16" fill="none" xmlns="http://www.w3.org/2000/svg">
<g clip-path="url(#clip0_264_13991)">
<path d="M2.66668 13.3333V9.33325C2.66668 7.91876 3.22858 6.56221 4.22877 5.56202C5.22897 4.56182 6.58552 3.99992 8.00001 3.99992C9.4145 3.99992 10.7711 4.56182 11.7712 5.56202C12.7714 6.56221 13.3333 7.91876 13.3333 9.33325V13.3333H14V14.6666H2.00001V13.3333H2.66668ZM4.00001 9.33325H5.33334C5.33334 8.62601 5.61429 7.94773 6.11439 7.44763C6.61449 6.94754 7.29277 6.66658 8.00001 6.66658V5.33325C6.93914 5.33325 5.92173 5.75468 5.17158 6.50482C4.42144 7.25497 4.00001 8.27239 4.00001 9.33325V9.33325ZM7.33334 1.33325H8.66668V3.33325H7.33334V1.33325ZM13.1853 3.20525L14.128 4.14792L12.7147 5.56192L11.7713 4.61925L13.1853 3.20525ZM1.87201 4.14792L2.81468 3.20525L4.22868 4.61859L3.28668 5.56258L1.87201 4.14792Z" fill="black"/>
</g>
<defs>
<clipPath id="clip0_264_13991">
<rect width="16" height="16" fill="white"/>
</clipPath>
</defs>
</svg>
