<svg width="20" height="20" viewBox="0 0 20 20" fill="none" xmlns="http://www.w3.org/2000/svg">
<g clip-path="url(#clip0_264_4581)">
<path d="M10.7217 2.49988L18.66 16.2499C18.7332 16.3766 18.7717 16.5203 18.7717 16.6665C18.7717 16.8128 18.7332 16.9565 18.66 17.0832C18.5869 17.2099 18.4817 17.3151 18.355 17.3882C18.2283 17.4614 18.0846 17.4999 17.9384 17.4999H2.06171C1.91543 17.4999 1.77173 17.4614 1.64505 17.3882C1.51837 17.3151 1.41317 17.2099 1.34003 17.0832C1.2669 16.9565 1.22839 16.8128 1.22839 16.6665C1.22839 16.5203 1.2669 16.3766 1.34004 16.2499L9.27837 2.49988C9.35151 2.37321 9.45671 2.26802 9.58339 2.19489C9.71007 2.12175 9.85376 2.08325 10 2.08325C10.1463 2.08325 10.29 2.12175 10.4167 2.19489C10.5434 2.26802 10.6486 2.37321 10.7217 2.49988ZM3.50504 15.8332H16.495L10 4.58322L3.50504 15.8332ZM9.1667 13.3332H10.8334V14.9999H9.1667V13.3332ZM9.1667 7.49988H10.8334V11.6665H9.1667V7.49988Z" fill="black"/>
</g>
<defs>
<clipPath id="clip0_264_4581">
<rect width="20" height="20" fill="white"/>
</clipPath>
</defs>
</svg>
