<svg width="20" height="20" viewBox="0 0 20 20" fill="none" xmlns="http://www.w3.org/2000/svg">
<g clip-path="url(#clip0_167_20547)">
<path d="M13.3333 13.3334C14.7141 13.3334 15.8333 14.4526 15.8333 15.8334C15.8333 17.2142 14.7141 18.3334 13.3333 18.3334C11.9525 18.3334 10.8333 17.2142 10.8333 15.8334C10.8333 14.4526 11.9525 13.3334 13.3333 13.3334ZM4.99996 10.0001C6.84163 10.0001 8.33329 11.4917 8.33329 13.3334C8.33329 15.1751 6.84163 16.6667 4.99996 16.6667C3.15829 16.6667 1.66663 15.1751 1.66663 13.3334C1.66663 11.4917 3.15829 10.0001 4.99996 10.0001ZM13.3333 15.0001C12.8733 15.0001 12.5 15.3734 12.5 15.8334C12.5 16.2934 12.8733 16.6667 13.3333 16.6667C13.7933 16.6667 14.1666 16.2934 14.1666 15.8334C14.1666 15.3734 13.7933 15.0001 13.3333 15.0001ZM4.99996 11.6667C4.07913 11.6667 3.33329 12.4126 3.33329 13.3334C3.33329 14.2542 4.07913 15.0001 4.99996 15.0001C5.92079 15.0001 6.66663 14.2542 6.66663 13.3334C6.66663 12.4126 5.92079 11.6667 4.99996 11.6667ZM12.0833 1.66675C14.615 1.66675 16.6666 3.71841 16.6666 6.25008C16.6666 8.78175 14.615 10.8334 12.0833 10.8334C9.55163 10.8334 7.49996 8.78175 7.49996 6.25008C7.49996 3.71841 9.55163 1.66675 12.0833 1.66675ZM12.0833 3.33341C10.4725 3.33341 9.16663 4.63925 9.16663 6.25008C9.16663 7.86091 10.4725 9.16675 12.0833 9.16675C13.6941 9.16675 15 7.86091 15 6.25008C15 4.63925 13.6941 3.33341 12.0833 3.33341Z" fill="black"/>
</g>
<defs>
<clipPath id="clip0_167_20547">
<rect width="20" height="20" fill="white"/>
</clipPath>
</defs>
</svg>
