<svg width="16" height="16" viewBox="0 0 16 16" fill="none" xmlns="http://www.w3.org/2000/svg">
<path d="M13.9445 5.66943C14.2758 5.66953 14.5445 5.93812 14.5445 6.26943C14.5445 6.60074 14.2758 6.86934 13.9445 6.86943H2.06167C1.7303 6.86943 1.46167 6.6008 1.46167 6.26943C1.46167 5.93806 1.7303 5.66943 2.06167 5.66943H13.9445Z" fill="black"/>
<path d="M10.9678 8.27344C11.2992 8.27348 11.5678 8.54209 11.5678 8.87344C11.5678 9.20478 11.2992 9.4734 10.9678 9.47344H10.9616C10.6302 9.47344 10.3616 9.20481 10.3616 8.87344C10.3616 8.54207 10.6302 8.27344 10.9616 8.27344H10.9678Z" fill="black"/>
<path d="M8.00933 8.27344C8.34066 8.27348 8.60933 8.54209 8.60933 8.87344C8.60933 9.20478 8.34066 9.4734 8.00933 9.47344H8.00308C7.67171 9.47344 7.40308 9.20481 7.40308 8.87344C7.40308 8.54207 7.67171 8.27344 8.00308 8.27344H8.00933Z" fill="black"/>
<path d="M5.04448 8.27344C5.37582 8.27348 5.64448 8.54209 5.64448 8.87344C5.64448 9.20478 5.37582 9.4734 5.04448 9.47344H5.03823C4.70686 9.47344 4.43823 9.20481 4.43823 8.87344C4.43823 8.54207 4.70686 8.27344 5.03823 8.27344H5.04448Z" fill="black"/>
<path d="M10.9678 10.8643C11.2992 10.8643 11.5678 11.1329 11.5678 11.4643C11.5678 11.7956 11.2992 12.0642 10.9678 12.0643H10.9616C10.6302 12.0643 10.3616 11.7956 10.3616 11.4643C10.3616 11.1329 10.6302 10.8643 10.9616 10.8643H10.9678Z" fill="black"/>
<path d="M8.00933 10.8643C8.34066 10.8643 8.60933 11.1329 8.60933 11.4643C8.60933 11.7956 8.34066 12.0642 8.00933 12.0643H8.00308C7.67171 12.0643 7.40308 11.7956 7.40308 11.4643C7.40308 11.1329 7.67171 10.8643 8.00308 10.8643H8.00933Z" fill="black"/>
<path d="M5.04448 10.8643C5.37582 10.8643 5.64448 11.1329 5.64448 11.4643C5.64448 11.7956 5.37582 12.0642 5.04448 12.0643H5.03823C4.70686 12.0643 4.43823 11.7956 4.43823 11.4643C4.43823 11.1329 4.70686 10.8643 5.03823 10.8643H5.04448Z" fill="black"/>
<path d="M10.0957 3.52715V1.3334C10.0957 1.00203 10.3643 0.733398 10.6957 0.733398C11.0271 0.733398 11.2957 1.00203 11.2957 1.3334V3.52715C11.2957 3.85852 11.0271 4.12715 10.6957 4.12715C10.3643 4.12715 10.0957 3.85852 10.0957 3.52715Z" fill="black"/>
<path d="M4.71045 3.52715V1.3334C4.71045 1.00203 4.97908 0.733398 5.31045 0.733398C5.64182 0.733398 5.91045 1.00203 5.91045 1.3334V3.52715C5.91045 3.85852 5.64182 4.12715 5.31045 4.12715C4.97908 4.12715 4.71045 3.85852 4.71045 3.52715Z" fill="black"/>
<path d="M1.3999 11.5143V5.48145C1.39991 4.35487 1.74701 3.40856 2.44287 2.74707C3.13406 2.09012 4.09355 1.78617 5.18037 1.78613H10.8257C11.9151 1.78618 12.8754 2.08997 13.5655 2.74785C14.26 3.40988 14.603 4.3562 14.5999 5.48145V11.565C14.5999 12.6907 14.2548 13.6384 13.5601 14.3018C12.8696 14.9608 11.9097 15.2666 10.8194 15.2666H5.18037C4.08986 15.2666 3.12868 14.9546 2.43818 14.2854C1.74467 13.6132 1.3999 12.6538 1.3999 11.5143ZM2.5999 11.5143C2.5999 12.411 2.866 13.0288 3.27334 13.4236C3.68365 13.8213 4.31325 14.0666 5.18037 14.0666H10.8194C11.6928 14.0666 12.3231 13.8241 12.7319 13.4338C13.1365 13.0475 13.3999 12.4441 13.3999 11.565V5.47988L13.3976 5.31816C13.3695 4.52689 13.1151 3.97669 12.7374 3.6166C12.3298 3.22809 11.7 2.98618 10.8257 2.98613H5.18037C4.30975 2.98616 3.67905 3.22731 3.26943 3.6166C2.86444 4.00159 2.59991 4.60333 2.5999 5.48145V11.5143Z" fill="black"/>
</svg>
