<svg width="16" height="16" viewBox="0 0 16 16" fill="none" xmlns="http://www.w3.org/2000/svg">
<path d="M5.32715 1C5.05078 1 4.82715 1.22363 4.82715 1.5V1.95361H4.04395C2.62842 1.95361 1.47656 3.10498 1.47656 4.52051V12.4326C1.47656 13.8481 2.62842 15 4.04395 15H11.9561C13.3716 15 14.5234 13.8481 14.5234 12.4326V4.52051C14.5234 3.10498 13.3716 1.95361 11.9561 1.95361H11.1729V1.5C11.1729 1.22363 10.9492 1 10.6729 1C10.3965 1 10.1729 1.22363 10.1729 1.5V1.95361H5.82715V1.5C5.82715 1.22363 5.60352 1 5.32715 1ZM10.1729 2.95361V3.40674C10.1729 3.68311 10.3965 3.90674 10.6729 3.90674C10.9492 3.90674 11.1729 3.68311 11.1729 3.40674V2.95361H11.9561C12.8203 2.95361 13.5234 3.65674 13.5234 4.52051V12.4326C13.5234 13.2969 12.8203 14 11.9561 14H4.04395C3.17969 14 2.47656 13.2969 2.47656 12.4326V4.52051C2.47656 3.65674 3.17969 2.95361 4.04395 2.95361H4.82715V3.40674C4.82715 3.68311 5.05078 3.90674 5.32715 3.90674C5.60352 3.90674 5.82715 3.68311 5.82715 3.40674V2.95361H10.1729Z" fill="black"/>
<path d="M4.06393 7.46875C3.91061 7.94043 4.0361 8.44824 4.39108 8.79395L5.14743 9.53125C5.21628 9.59814 5.24753 9.69531 5.23141 9.79053L5.05319 10.8306C4.96921 11.3193 5.16598 11.8037 5.56686 12.0952C5.96774 12.3857 6.48971 12.4258 6.92966 12.1938L7.86374 11.7026C7.9487 11.6577 8.05124 11.6577 8.1362 11.7026L9.07077 12.1943C9.26169 12.2944 9.46774 12.3438 9.67331 12.3438C9.94089 12.3438 10.206 12.2598 10.4331 12.0952C10.834 11.8037 11.0307 11.3193 10.9467 10.8311L10.7685 9.79004C10.7524 9.69531 10.7837 9.59814 10.853 9.53076L11.6089 8.79443C11.9638 8.44824 12.0893 7.94043 11.936 7.46875C11.7827 6.99707 11.3828 6.65967 10.8921 6.58887L9.84714 6.43701C9.75192 6.42285 9.6694 6.36279 9.62643 6.27637L9.15964 5.33008C8.9404 4.88525 8.49606 4.60938 7.99997 4.60938C7.50387 4.60938 7.05954 4.88525 6.8403 5.33008L6.3735 6.27637C6.33053 6.36279 6.24801 6.42285 6.1528 6.43701L5.10788 6.58887C4.61716 6.65967 4.21725 6.99707 4.06393 7.46875ZM7.26999 6.71875L7.73678 5.77246C7.80954 5.625 7.94528 5.60938 7.99997 5.60938C8.05466 5.60938 8.1904 5.625 8.26315 5.77246L8.72995 6.71875C8.91843 7.10059 9.28219 7.36523 9.70358 7.42627L10.7485 7.57812C10.9111 7.60205 10.9677 7.72559 10.9848 7.77783C11.0019 7.82959 11.0283 7.96338 10.9106 8.07812L10.1552 8.81445C9.84958 9.11182 9.71042 9.54004 9.78317 9.95947L9.96139 11.0005C9.98923 11.1616 9.88913 11.2539 9.84469 11.2861C9.80075 11.3184 9.68161 11.3867 9.5361 11.3091L8.60202 10.8179C8.41354 10.7188 8.20651 10.6689 7.99997 10.6689C7.79343 10.6689 7.58639 10.7188 7.39792 10.8179L6.46432 11.3086C6.31833 11.3857 6.19968 11.3184 6.15524 11.2861C6.11081 11.2539 6.01071 11.1616 6.03854 11L6.21676 9.95996C6.28952 9.54004 6.15036 9.11182 5.84518 8.81494L5.08932 8.07764C4.97165 7.96338 4.99801 7.82959 5.0151 7.77783C5.03219 7.72559 5.08884 7.60205 5.25143 7.57812L6.29635 7.42627C6.71774 7.36523 7.08151 7.10059 7.26999 6.71875Z" fill="black"/>
</svg>
