<svg width="20" height="20" viewBox="0 0 20 20" fill="none" xmlns="http://www.w3.org/2000/svg">
<g clip-path="url(#clip0_264_4558)">
<path d="M7.49996 0.833252V2.49992H12.5V0.833252H14.1666V2.49992H17.5C17.721 2.49992 17.9329 2.58772 18.0892 2.744C18.2455 2.90028 18.3333 3.11224 18.3333 3.33325V16.6666C18.3333 16.8876 18.2455 17.0996 18.0892 17.2558C17.9329 17.4121 17.721 17.4999 17.5 17.4999H2.49996C2.27895 17.4999 2.06698 17.4121 1.9107 17.2558C1.75442 17.0996 1.66663 16.8876 1.66663 16.6666V3.33325C1.66663 3.11224 1.75442 2.90028 1.9107 2.744C2.06698 2.58772 2.27895 2.49992 2.49996 2.49992H5.83329V0.833252H7.49996ZM16.6666 8.33325H3.33329V15.8333H16.6666V8.33325ZM12.53 9.27992L13.7083 10.4583L9.58329 14.5833L6.63663 11.6366L7.81663 10.4583L9.58413 12.2266L12.5308 9.27992H12.53ZM5.83329 4.16659H3.33329V6.66658H16.6666V4.16659H14.1666V4.99992H12.5V4.16659H7.49996V4.99992H5.83329V4.16659Z" fill="black"/>
</g>
<defs>
<clipPath id="clip0_264_4558">
<rect width="20" height="20" fill="white"/>
</clipPath>
</defs>
</svg>
