<svg width="20" height="20" viewBox="0 0 20 20" fill="none" xmlns="http://www.w3.org/2000/svg">
<g clip-path="url(#clip0_264_4569)">
<path d="M12.0416 15.8333L9.99996 18.75L7.95829 15.8333H2.49996C2.27895 15.8333 2.06698 15.7455 1.9107 15.5893C1.75442 15.433 1.66663 15.221 1.66663 15V3.33333C1.66663 3.11232 1.75442 2.90036 1.9107 2.74408C2.06698 2.5878 2.27895 2.5 2.49996 2.5H17.5C17.721 2.5 17.9329 2.5878 18.0892 2.74408C18.2455 2.90036 18.3333 3.11232 18.3333 3.33333V15C18.3333 15.221 18.2455 15.433 18.0892 15.5893C17.9329 15.7455 17.721 15.8333 17.5 15.8333H12.0416ZM11.1741 14.1667H16.6666V4.16667H3.33329V14.1667H8.82579L9.99996 15.8433L11.1741 14.1667Z" fill="black"/>
</g>
<defs>
<clipPath id="clip0_264_4569">
<rect width="20" height="20" fill="white"/>
</clipPath>
</defs>
</svg>
