<svg width="32" height="32" viewBox="0 0 32 32" fill="none" xmlns="http://www.w3.org/2000/svg">
<g clip-path="url(#clip0_294_13974)">
<path d="M16.0001 28.6911C8.63608 28.6911 2.66675 22.7217 2.66675 15.3577C2.66675 7.99375 8.63608 2.02441 16.0001 2.02441C23.3641 2.02441 29.3334 7.99375 29.3334 15.3577C29.3334 22.7217 23.3641 28.6911 16.0001 28.6911ZM16.0001 26.0244C18.8291 26.0244 21.5422 24.9006 23.5426 22.9002C25.5429 20.8998 26.6667 18.1867 26.6667 15.3577C26.6667 12.5288 25.5429 9.81566 23.5426 7.81528C21.5422 5.81489 18.8291 4.69108 16.0001 4.69108C13.1711 4.69108 10.458 5.81489 8.45761 7.81528C6.45722 9.81566 5.33341 12.5288 5.33341 15.3577C5.33341 18.1867 6.45722 20.8998 8.45761 22.9002C10.458 24.9006 13.1711 26.0244 16.0001 26.0244ZM16.0001 13.4724L19.7707 9.70041L21.6574 11.5871L17.8854 15.3577L21.6574 19.1284L19.7707 21.0151L16.0001 17.2431L12.2294 21.0151L10.3427 19.1284L14.1147 15.3577L10.3427 11.5871L12.2294 9.70041L16.0001 13.4724Z" fill="black"/>
</g>
<defs>
<clipPath id="clip0_294_13974">
<rect width="32" height="32" fill="white"/>
</clipPath>
</defs>
</svg>
