<svg width="16" height="16" viewBox="0 0 16 16" fill="none" xmlns="http://www.w3.org/2000/svg">
<path d="M11.3767 3.3832C11.4303 3.0562 11.7395 2.83422 12.0665 2.88788C13.2615 3.08409 14.1727 4.11996 14.1728 5.3707V5.37226C14.17 6.64107 13.23 7.68733 12.0087 7.85898C11.6806 7.90508 11.3767 7.67619 11.3306 7.34804C11.2846 7.02002 11.5135 6.71685 11.8415 6.6707C12.4797 6.58103 12.9708 6.03318 12.9728 5.3707C12.9727 4.71756 12.4969 4.17483 11.872 4.07226C11.5451 4.01862 11.3232 3.71007 11.3767 3.3832Z" fill="black"/>
<path d="M14.0821 10.6003C14.0821 10.5128 14.0582 10.4457 13.9259 10.3589C13.7633 10.2523 13.4814 10.1566 13.0634 10.0941C12.7358 10.0449 12.5097 9.7389 12.5587 9.41126C12.6078 9.08368 12.9139 8.85759 13.2415 8.90657C13.7239 8.97872 14.2069 9.10799 14.5837 9.35501C14.9908 9.622 15.2821 10.0379 15.2821 10.6003C15.2821 10.9705 15.1542 11.2964 14.9235 11.5574C14.704 11.8057 14.4148 11.9695 14.1212 12.0816C13.8116 12.1997 13.4643 12.0443 13.3462 11.7347C13.2283 11.4252 13.3836 11.0786 13.693 10.9605C13.8778 10.89 13.9761 10.8172 14.0243 10.7628C14.0613 10.721 14.0821 10.6775 14.0821 10.6003Z" fill="black"/>
<path d="M3.35181 11.3969C3.35187 10.9143 3.52883 10.5027 3.83931 10.1805C4.13559 9.87301 4.53002 9.67008 4.94399 9.53125C5.76592 9.25564 6.84039 9.17578 7.92446 9.17578C9.01508 9.17578 10.0901 9.25844 10.9112 9.5375C11.3249 9.67812 11.718 9.88327 12.0127 10.1922C12.3213 10.5156 12.4963 10.9272 12.4963 11.4086C12.4963 11.8913 12.3195 12.3028 12.0088 12.625C11.7124 12.9323 11.318 13.135 10.9042 13.2734C10.0825 13.5482 9.00815 13.6273 7.92446 13.6273C6.83395 13.6273 5.75888 13.5449 4.93774 13.2664C4.52413 13.1261 4.13111 12.9217 3.83618 12.6133C3.52733 12.2902 3.35181 11.8782 3.35181 11.3969ZM4.55181 11.3969C4.55181 11.5634 4.60401 11.6796 4.70337 11.7836C4.81671 11.9022 5.01282 12.0245 5.3229 12.1297C5.94958 12.3422 6.86101 12.4273 7.92446 12.4273C8.98338 12.4273 9.89506 12.3454 10.5237 12.1352C10.8349 12.0311 11.032 11.9099 11.1456 11.7922C11.2447 11.6893 11.2963 11.5744 11.2963 11.4086C11.2963 11.2414 11.2443 11.1246 11.1448 11.0203C11.0314 10.9015 10.8353 10.7788 10.5252 10.6734C9.89886 10.4605 8.98779 10.3758 7.92446 10.3758C6.86594 10.3758 5.95397 10.4579 5.32524 10.6688C5.01394 10.7732 4.81715 10.8952 4.70337 11.0133C4.6039 11.1165 4.55186 11.2314 4.55181 11.3969Z" fill="black"/>
<path d="M9.87053 5.37949C9.87053 4.30488 8.99904 3.43343 7.92444 3.4334C6.8498 3.4334 5.97834 4.30487 5.97834 5.37949V5.38184C5.97437 6.4518 6.83841 7.32202 7.90803 7.32559H7.92444C8.99911 7.32556 9.87048 6.45462 9.87053 5.37949ZM11.0705 5.37949C11.0705 7.11757 9.66165 8.52556 7.92444 8.52559H7.90334C6.17053 8.51961 4.77179 7.10964 4.77834 5.37715C4.77956 3.64081 6.18782 2.2334 7.92444 2.2334C9.66178 2.23343 11.0705 3.64214 11.0705 5.37949Z" fill="black"/>
<path d="M3.78232 2.88785C4.10925 2.83432 4.41774 3.05623 4.47139 3.38316C4.52487 3.71006 4.30298 4.01858 3.97607 4.07223C3.35135 4.17494 2.87531 4.71765 2.87529 5.37066C2.87726 6.03327 3.36799 6.58093 4.00654 6.67066C4.33466 6.71673 4.56348 7.0199 4.51748 7.34801C4.47142 7.67607 4.16819 7.90485 3.84014 7.85894C2.6179 7.68734 1.67806 6.6409 1.67529 5.37223V5.37066C1.67531 4.11985 2.58727 3.08396 3.78232 2.88785Z" fill="black"/>
<path d="M0.56665 10.6003C0.56665 10.0379 0.857214 9.62199 1.26431 9.355C1.64122 9.10781 2.12466 8.97872 2.60728 8.90656C2.93486 8.85762 3.24015 9.08373 3.28931 9.41125C3.33831 9.73898 3.11235 10.0451 2.78462 10.0941C2.36677 10.1566 2.08549 10.2523 1.9229 10.3589C1.79049 10.4457 1.76665 10.5128 1.76665 10.6003C1.76665 10.6775 1.78671 10.721 1.82368 10.7628C1.87175 10.8172 1.9701 10.8899 2.15493 10.9605C2.46447 11.0786 2.61984 11.4251 2.50181 11.7347C2.38368 12.0442 2.03714 12.1996 1.72759 12.0816C1.434 11.9695 1.1448 11.8056 0.925244 11.5573C0.694562 11.2964 0.56665 10.9705 0.56665 10.6003Z" fill="black"/>
</svg>
