<svg width="20" height="20" viewBox="0 0 20 20" fill="none" xmlns="http://www.w3.org/2000/svg">
<path d="M3.33333 5.22834C3.33342 4.72576 3.53277 4.24345 3.88815 3.88807C4.24353 3.53269 4.72584 3.33334 5.22842 3.33325C5.5625 3.33325 5.83333 3.60408 5.83333 3.93817C5.83333 4.27225 5.5625 4.54308 5.22842 4.54308C5.04671 4.54317 4.87204 4.61496 4.74354 4.74346C4.61504 4.87195 4.54325 5.04663 4.54316 5.22834C4.54316 5.56242 4.27233 5.83325 3.93825 5.83325C3.60416 5.83325 3.33333 5.56242 3.33333 5.22834Z" fill="black"/>
<path d="M15.4568 5.22834C15.4568 5.04663 15.385 4.87196 15.2565 4.74346C15.1279 4.61499 14.9533 4.54308 14.7716 4.54308C14.4375 4.54308 14.1667 4.27225 14.1667 3.93817C14.1667 3.60408 14.4375 3.33325 14.7716 3.33325C15.2742 3.33325 15.7564 3.53271 16.1118 3.88807C16.4672 4.24345 16.6666 4.72576 16.6667 5.22834C16.6667 5.56242 16.3958 5.83325 16.0617 5.83325C15.7278 5.83308 15.4568 5.56232 15.4568 5.22834Z" fill="black"/>
<path d="M15.4568 14.7717C15.4568 14.4377 15.7278 14.1669 16.0617 14.1667C16.3958 14.1667 16.6667 14.4376 16.6667 14.7717C16.6667 15.2744 16.4673 15.7565 16.1118 16.1119C15.7564 16.4674 15.2743 16.6667 14.7716 16.6667C14.4375 16.6667 14.1667 16.3959 14.1667 16.0618C14.1668 15.7279 14.4376 15.4569 14.7716 15.4569C14.9534 15.4569 15.1279 15.3851 15.2565 15.2565C15.385 15.128 15.4568 14.9535 15.4568 14.7717Z" fill="black"/>
<path d="M3.33333 14.7717C3.33333 14.4376 3.60416 14.1667 3.93825 14.1667C4.27233 14.1667 4.54316 14.4376 4.54316 14.7717C4.54316 14.9534 4.61507 15.128 4.74354 15.2565C4.87204 15.385 5.04671 15.4568 5.22842 15.4569C5.5624 15.4569 5.83316 15.7279 5.83333 16.0618C5.83333 16.3959 5.5625 16.6667 5.22842 16.6667C4.72584 16.6667 4.24353 16.4673 3.88815 16.1119C3.53279 15.7565 3.33333 15.2743 3.33333 14.7717Z" fill="black"/>
<path d="M8.62328 3.33325C8.92325 3.33349 9.16667 3.70649 9.16667 4.16659C9.16667 4.62668 8.92325 4.99968 8.62328 4.99992H8.04339C7.74328 4.99992 7.5 4.62682 7.5 4.16659C7.5 3.70635 7.74328 3.33325 8.04339 3.33325H8.62328Z" fill="black"/>
<path d="M8.62328 15C8.92325 15.0002 9.16667 15.3732 9.16667 15.8333C9.16667 16.2934 8.92325 16.6664 8.62328 16.6667H8.04339C7.74328 16.6667 7.5 16.2936 7.5 15.8333C7.5 15.3731 7.74328 15 8.04339 15H8.62328Z" fill="black"/>
<path d="M11.9566 3.33325C12.2566 3.33349 12.5 3.70649 12.5 4.16659C12.5 4.62668 12.2566 4.99968 11.9566 4.99992H11.3767C11.0766 4.99992 10.8333 4.62682 10.8333 4.16659C10.8333 3.70635 11.0766 3.33325 11.3767 3.33325H11.9566Z" fill="black"/>
<path d="M11.9566 15C12.2566 15.0002 12.5 15.3732 12.5 15.8333C12.5 16.2934 12.2566 16.6664 11.9566 16.6667H11.3767C11.0766 16.6667 10.8333 16.2936 10.8333 15.8333C10.8333 15.3731 11.0766 15 11.3767 15H11.9566Z" fill="black"/>
<path d="M3.33333 8.62328V8.04339C3.33333 7.74328 3.70643 7.5 4.16667 7.5C4.6269 7.5 5 7.74328 5 8.04339V8.62328C4.99976 8.92325 4.62676 9.16667 4.16667 9.16667C3.70657 9.16667 3.33357 8.92325 3.33333 8.62328Z" fill="black"/>
<path d="M15 8.62328V8.04339C15 7.74328 15.3731 7.5 15.8333 7.5C16.2936 7.5 16.6667 7.74328 16.6667 8.04339V8.62328C16.6664 8.92325 16.2934 9.16667 15.8333 9.16667C15.3732 9.16667 15.0002 8.92325 15 8.62328Z" fill="black"/>
<path d="M3.33333 11.9565V11.3766C3.33333 11.0765 3.70643 10.8333 4.16667 10.8333C4.6269 10.8333 5 11.0765 5 11.3766V11.9565C4.99976 12.2565 4.62676 12.4999 4.16667 12.4999C3.70657 12.4999 3.33357 12.2565 3.33333 11.9565Z" fill="black"/>
<path d="M15 11.9565V11.3766C15 11.0765 15.3731 10.8333 15.8333 10.8333C16.2936 10.8333 16.6667 11.0765 16.6667 11.3766V11.9565C16.6664 12.2565 16.2934 12.4999 15.8333 12.4999C15.3732 12.4999 15.0002 12.2565 15 11.9565Z" fill="black"/>
</svg>
