<svg width="20" height="20" viewBox="0 0 20 20" fill="none" xmlns="http://www.w3.org/2000/svg">
<path d="M16.75 3.8252C16.7499 3.49602 16.49 3.25 16.1963 3.25H3.80469C3.51027 3.25 3.25007 3.49669 3.25 3.8252V4.60547C3.25003 4.95734 3.38425 5.29404 3.62109 5.5459L7.62012 9.79785C7.63049 9.80733 7.64149 9.81703 7.65137 9.82715C8.56836 10.7661 9.08295 12.0333 9.08301 13.3525V16.4609L10.7598 15.5479C10.8624 15.4918 10.9335 15.3787 10.9336 15.249V13.3428C10.9336 12.0315 11.4398 10.7689 12.3496 9.83105L16.3799 5.5459C16.616 5.29388 16.75 4.95713 16.75 4.60547V3.8252ZM18.25 4.60547C18.25 5.33682 17.9723 6.04174 17.4736 6.57324H17.4727L13.4346 10.8672L13.4268 10.876C12.7916 11.5307 12.4336 12.4169 12.4336 13.3428V15.249C12.4335 15.919 12.0709 16.5422 11.4795 16.8652H11.4785L9.17871 18.1182L9.17773 18.1191C8.43856 18.5203 7.58332 17.9648 7.58301 17.1631V13.3525C7.58295 12.4385 7.23141 11.5637 6.61035 10.9102C6.59521 10.8965 6.5805 10.8822 6.56641 10.8672L2.52832 6.57324C2.02832 6.04151 1.75003 5.33687 1.75 4.60547V3.8252C1.75007 2.69127 2.65903 1.75 3.80469 1.75H16.1963C17.3426 1.75 18.2499 2.69194 18.25 3.8252V4.60547Z" fill="black"/>
</svg>
