<svg width="20" height="20" viewBox="0 0 20 20" fill="none" xmlns="http://www.w3.org/2000/svg">
<g clip-path="url(#clip0_265_13974)">
<path d="M14.1667 5.00008H18.3334V6.66675H16.6667V17.5001C16.6667 17.7211 16.5789 17.9331 16.4226 18.0893C16.2663 18.2456 16.0544 18.3334 15.8334 18.3334H4.16669C3.94567 18.3334 3.73371 18.2456 3.57743 18.0893C3.42115 17.9331 3.33335 17.7211 3.33335 17.5001V6.66675H1.66669V5.00008H5.83335V2.50008C5.83335 2.27907 5.92115 2.06711 6.07743 1.91083C6.23371 1.75455 6.44567 1.66675 6.66669 1.66675H13.3334C13.5544 1.66675 13.7663 1.75455 13.9226 1.91083C14.0789 2.06711 14.1667 2.27907 14.1667 2.50008V5.00008ZM15 6.66675H5.00002V16.6667H15V6.66675ZM7.50002 3.33341V5.00008H12.5V3.33341H7.50002Z" fill="black"/>
</g>
<defs>
<clipPath id="clip0_265_13974">
<rect width="20" height="20" fill="white"/>
</clipPath>
</defs>
</svg>
