<svg width="20" height="20" viewBox="0 0 20 20" fill="none" xmlns="http://www.w3.org/2000/svg">
<g clip-path="url(#clip0_167_20524)">
<path d="M9.99996 18.3334C5.39746 18.3334 1.66663 14.6026 1.66663 10.0001C1.66663 5.39758 5.39746 1.66675 9.99996 1.66675C14.6025 1.66675 18.3333 5.39758 18.3333 10.0001C18.3333 14.6026 14.6025 18.3334 9.99996 18.3334ZM8.09163 16.3892C7.26947 14.6453 6.79319 12.7586 6.68913 10.8334H3.38496C3.54711 12.1158 4.07823 13.3236 4.91377 14.3098C5.74931 15.2961 6.8533 16.0185 8.09163 16.3892ZM8.35829 10.8334C8.48413 12.8659 9.06496 14.7751 9.99996 16.4601C10.9602 14.7305 11.5212 12.808 11.6416 10.8334H8.35829ZM16.615 10.8334H13.3108C13.2067 12.7586 12.7304 14.6453 11.9083 16.3892C13.1466 16.0185 14.2506 15.2961 15.0862 14.3098C15.9217 13.3236 16.4528 12.1158 16.615 10.8334ZM3.38496 9.16675H6.68913C6.79319 7.24157 7.26947 5.35482 8.09163 3.61091C6.8533 3.98165 5.74931 4.70404 4.91377 5.69033C4.07823 6.67661 3.54711 7.88433 3.38496 9.16675ZM8.35913 9.16675H11.6408C11.5206 7.19225 10.9599 5.26969 9.99996 3.54008C9.03969 5.26962 8.47876 7.19218 8.35829 9.16675H8.35913ZM11.9083 3.61091C12.7304 5.35482 13.2067 7.24157 13.3108 9.16675H16.615C16.4528 7.88433 15.9217 6.67661 15.0862 5.69033C14.2506 4.70404 13.1466 3.98165 11.9083 3.61091Z" fill="black"/>
</g>
<defs>
<clipPath id="clip0_167_20524">
<rect width="20" height="20" fill="white"/>
</clipPath>
</defs>
</svg>
