<svg width="20" height="20" viewBox="0 0 20 20" fill="none" xmlns="http://www.w3.org/2000/svg">
<g clip-path="url(#clip0_264_4541)">
<path d="M1.66663 18.3333C1.66663 16.5651 2.36901 14.8694 3.61925 13.6192C4.86949 12.369 6.56518 11.6666 8.33329 11.6666C10.1014 11.6666 11.7971 12.369 13.0473 13.6192C14.2976 14.8694 15 16.5651 15 18.3333H13.3333C13.3333 17.0072 12.8065 15.7354 11.8688 14.7977C10.9311 13.86 9.65937 13.3333 8.33329 13.3333C7.00721 13.3333 5.73544 13.86 4.79776 14.7977C3.86008 15.7354 3.33329 17.0072 3.33329 18.3333H1.66663ZM8.33329 10.8333C5.57079 10.8333 3.33329 8.59575 3.33329 5.83325C3.33329 3.07075 5.57079 0.833252 8.33329 0.833252C11.0958 0.833252 13.3333 3.07075 13.3333 5.83325C13.3333 8.59575 11.0958 10.8333 8.33329 10.8333ZM8.33329 9.16658C10.175 9.16658 11.6666 7.67492 11.6666 5.83325C11.6666 3.99159 10.175 2.49992 8.33329 2.49992C6.49163 2.49992 4.99996 3.99159 4.99996 5.83325C4.99996 7.67492 6.49163 9.16658 8.33329 9.16658ZM15.2366 12.2524C16.4077 12.7799 17.4016 13.6343 18.0988 14.713C18.796 15.7917 19.1668 17.0488 19.1666 18.3333H17.5C17.5001 17.3699 17.2221 16.427 16.6992 15.6179C16.1763 14.8088 15.4309 14.168 14.5525 13.7724L15.2358 12.2524H15.2366ZM14.6633 2.84409C15.5029 3.19017 16.2208 3.77787 16.7258 4.53261C17.2308 5.28735 17.5003 6.17512 17.5 7.08325C17.5003 8.22686 17.073 9.32927 16.3021 10.1739C15.5311 11.0186 14.4722 11.5445 13.3333 11.6483V9.97075C13.9507 9.88232 14.5236 9.59827 14.9677 9.1603C15.4118 8.72233 15.7039 8.15352 15.8009 7.53736C15.898 6.92121 15.7949 6.29017 15.5069 5.73688C15.2189 5.18359 14.7612 4.73721 14.2008 4.46325L14.6633 2.84409Z" fill="black"/>
</g>
<defs>
<clipPath id="clip0_264_4541">
<rect width="20" height="20" fill="white"/>
</clipPath>
</defs>
</svg>
