<svg width="20" height="20" viewBox="0 0 20 20" fill="none" xmlns="http://www.w3.org/2000/svg">
<g clip-path="url(#clip0_264_4598)">
<path d="M10.0008 3.77415C11.9583 2.01665 14.9833 2.07498 16.8691 3.96415C18.7541 5.85415 18.8191 8.86415 17.0658 10.8275L9.99913 17.9042L2.93413 10.8275C1.1808 8.86415 1.24663 5.84915 3.1308 3.96415C5.0183 2.07748 8.03746 2.01415 10.0008 3.77415ZM15.6891 5.14165C14.4391 3.88998 12.4225 3.83915 11.1141 5.01415L10.0016 6.01248L8.8883 5.01498C7.5758 3.83832 5.5633 3.88998 4.30996 5.14332C3.0683 6.38498 3.0058 8.37248 4.14996 9.68582L9.99996 15.545L15.85 9.68665C16.995 8.37248 16.9325 6.38748 15.6891 5.14165Z" fill="black"/>
</g>
<defs>
<clipPath id="clip0_264_4598">
<rect width="20" height="20" fill="white"/>
</clipPath>
</defs>
</svg>
