<svg width="24" height="24" viewBox="0 0 24 24" fill="none" xmlns="http://www.w3.org/2000/svg">
<path d="M12 21C16.9706 21 21 16.9706 21 12C21 7.02944 16.9706 3 12 3C7.02944 3 3 7.02944 3 12C3 16.9706 7.02944 21 12 21Z" stroke="black" stroke-width="1.25" stroke-linecap="round" stroke-linejoin="round"/>
<path d="M9.3811 9.30012C9.5927 8.69862 10.0103 8.19142 10.5601 7.86834C11.1098 7.54527 11.7561 7.42717 12.3846 7.53496C13.013 7.64276 13.583 7.96949 13.9937 8.4573C14.4043 8.9451 14.6291 9.56249 14.6281 10.2001C14.6281 12.0001 11.9281 12.9001 11.9281 12.9001" stroke="black" stroke-width="1.25" stroke-linecap="round" stroke-linejoin="round"/>
<path d="M12 16.5H12.009" stroke="black" stroke-width="1.25" stroke-linecap="round" stroke-linejoin="round"/>
</svg>
