<svg width="16" height="16" viewBox="0 0 16 16" fill="none" xmlns="http://www.w3.org/2000/svg">
<path fill-rule="evenodd" clip-rule="evenodd" d="M8 1.93754C7.1716 1.93754 6.5 2.58225 6.5 3.37754C6.5 4.17283 7.1716 4.81754 8 4.81754C8.8284 4.81754 9.5 4.17283 9.5 3.37754C9.5 2.58225 8.8284 1.93754 8 1.93754ZM5.5 3.37754C5.5 2.05205 6.61929 0.977539 8 0.977539C9.38073 0.977539 10.5 2.05205 10.5 3.37754C10.5 4.70302 9.38073 5.77754 8 5.77754C6.61929 5.77754 5.5 4.70302 5.5 3.37754Z" fill="black"/>
<path fill-rule="evenodd" clip-rule="evenodd" d="M3.33325 10.8975C2.50483 10.8975 1.83325 11.5422 1.83325 12.3375C1.83325 13.1328 2.50483 13.7775 3.33325 13.7775C4.16168 13.7775 4.83325 13.1328 4.83325 12.3375C4.83325 11.5422 4.16168 10.8975 3.33325 10.8975ZM0.833252 12.3375C0.833252 11.012 1.95254 9.9375 3.33325 9.9375C4.71397 9.9375 5.83325 11.012 5.83325 12.3375C5.83325 13.663 4.71397 14.7375 3.33325 14.7375C1.95254 14.7375 0.833252 13.663 0.833252 12.3375Z" fill="black"/>
<path fill-rule="evenodd" clip-rule="evenodd" d="M12.6665 10.8975C11.8381 10.8975 11.1665 11.5422 11.1665 12.3375C11.1665 13.1328 11.8381 13.7775 12.6665 13.7775C13.4949 13.7775 14.1665 13.1328 14.1665 12.3375C14.1665 11.5422 13.4949 10.8975 12.6665 10.8975ZM10.1665 12.3375C10.1665 11.012 11.2858 9.9375 12.6665 9.9375C14.0472 9.9375 15.1665 11.012 15.1665 12.3375C15.1665 13.663 14.0472 14.7375 12.6665 14.7375C11.2858 14.7375 10.1665 13.663 10.1665 12.3375Z" fill="black"/>
<path fill-rule="evenodd" clip-rule="evenodd" d="M7.99992 4.81738C8.27605 4.81738 8.49992 5.03229 8.49992 5.29738V7.37738H10.3632C10.8877 7.37738 11.3242 7.37738 11.6707 7.41565C12.0312 7.45559 12.3699 7.54333 12.6503 7.77412C12.9418 8.01399 13.064 8.3201 13.1179 8.64964C13.1667 8.94845 13.1667 9.31978 13.1666 9.74193V10.4174C13.1666 10.6825 12.9427 10.8974 12.6666 10.8974C12.3905 10.8974 12.1666 10.6825 12.1666 10.4174V9.77738C12.1666 9.30909 12.1651 9.01405 12.1299 8.79837C12.0983 8.60503 12.0497 8.54429 11.9995 8.50301C11.9382 8.45258 11.8311 8.39978 11.5562 8.36938C11.2738 8.33815 10.8954 8.33738 10.3333 8.33738H5.66659C5.10445 8.33738 4.72605 8.33815 4.44368 8.36938C4.16879 8.39978 4.06164 8.45258 4.00036 8.50301C3.95019 8.54429 3.90151 8.60503 3.86993 8.79837C3.83469 9.01405 3.83325 9.30909 3.83325 9.77738V10.4174C3.83325 10.6825 3.60939 10.8974 3.33325 10.8974C3.05711 10.8974 2.83325 10.6825 2.83325 10.4174V9.77738C2.83325 9.76554 2.83325 9.7537 2.83325 9.74193C2.83321 9.31978 2.83318 8.94845 2.88201 8.64964C2.93585 8.3201 3.05802 8.01399 3.34957 7.77412C3.62999 7.54333 3.96868 7.45559 4.32919 7.41565C4.67565 7.37738 5.11218 7.37738 5.63665 7.37738H7.49992V5.29738C7.49992 5.03229 7.72379 4.81738 7.99992 4.81738Z" fill="black"/>
</svg>
