<svg width="16" height="16" viewBox="0 0 16 16" fill="none" xmlns="http://www.w3.org/2000/svg">
<g clip-path="url(#clip0_292_2329)">
<path d="M14.1667 8.00016C14.1667 4.59441 11.4058 1.8335 8.00004 1.8335C4.59428 1.8335 1.83337 4.59441 1.83337 8.00016C1.83337 11.4059 4.59428 14.1668 8.00004 14.1668C11.4058 14.1668 14.1667 11.4059 14.1667 8.00016ZM15.1667 8.00016C15.1667 11.9582 11.9581 15.1668 8.00004 15.1668C4.042 15.1668 0.833374 11.9582 0.833374 8.00016C0.833374 4.04212 4.042 0.833496 8.00004 0.833496C11.9581 0.833496 15.1667 4.04212 15.1667 8.00016Z" fill="black"/>
<path d="M7.5 10.6667V8C7.5 7.72386 7.72386 7.5 8 7.5C8.27614 7.5 8.5 7.72386 8.5 8V10.6667C8.5 10.9428 8.27614 11.1667 8 11.1667C7.72386 11.1667 7.5 10.9428 7.5 10.6667Z" fill="black"/>
<path d="M8.00651 4.8335C8.28265 4.8335 8.50651 5.05735 8.50651 5.3335C8.50651 5.60964 8.28265 5.8335 8.00651 5.8335H8C7.72386 5.8335 7.5 5.60964 7.5 5.3335C7.5 5.05735 7.72386 4.8335 8 4.8335H8.00651Z" fill="black"/>
</g>
<defs>
<clipPath id="clip0_292_2329">
<rect width="16" height="16" fill="white"/>
</clipPath>
</defs>
</svg>
