<svg width="20" height="20" viewBox="0 0 20 20" fill="none" xmlns="http://www.w3.org/2000/svg">
<g clip-path="url(#clip0_200_11492)">
<path d="M8.33333 9.16675V6.66675L12.5 10.0001L8.33333 13.3334V10.8334H0.833328V9.16675H8.33333ZM2.04833 12.5001H3.81833C4.40003 13.9326 5.46142 15.1186 6.82092 15.855C8.18043 16.5915 9.75358 16.8327 11.2713 16.5374C12.789 16.2421 14.1569 15.4286 15.1411 14.2361C16.1253 13.0436 16.6646 11.5462 16.6667 10.0001C16.6675 8.4523 16.1298 6.95244 15.1457 5.75777C14.1617 4.56309 12.7926 3.74805 11.2733 3.45243C9.75401 3.15681 8.1792 3.39903 6.81898 4.13756C5.45875 4.87609 4.39788 6.0649 3.81833 7.50008H2.04833C3.10999 4.11925 6.26833 1.66675 9.99999 1.66675C14.6025 1.66675 18.3333 5.39758 18.3333 10.0001C18.3333 14.6026 14.6025 18.3334 9.99999 18.3334C6.26833 18.3334 3.10999 15.8809 2.04833 12.5001Z" fill="black"/>
</g>
<defs>
<clipPath id="clip0_200_11492">
<rect width="20" height="20" fill="white"/>
</clipPath>
</defs>
</svg>
