<svg width="20" height="20" viewBox="0 0 20 20" fill="none" xmlns="http://www.w3.org/2000/svg">
<g clip-path="url(#clip0_212_12262)">
<path d="M13.5668 3.93311C13.3227 3.68896 12.9272 3.68896 12.6831 3.93311L0.183112 16.4331C-0.0610373 16.6772 -0.0610373 17.0727 0.183112 17.3168L2.68311 19.8168C2.80517 19.9389 2.96509 19.9999 3.12502 19.9999C3.28495 19.9999 3.44483 19.9389 3.56693 19.8168L16.0668 7.31689C16.311 7.07274 16.311 6.67726 16.0668 6.43311L13.5668 3.93311ZM3.12498 18.4912L1.5088 16.875L9.99997 8.38381L11.6162 10C11.6162 9.99999 3.12498 18.4912 3.12498 18.4912ZM12.5 9.11621L10.8837 7.49999L13.1249 5.2588L14.7412 6.87502L12.5 9.11621Z" fill="black"/>
<path d="M8.75 5C9.37501 3.75002 9.99998 3.12501 11.25 2.5C10 1.87499 9.37501 1.25002 8.75 0C8.12499 1.24998 7.49994 1.87499 6.25 2.5C7.50002 3.12501 8.12499 3.75002 8.75 5Z" fill="black"/>
<path d="M18.75 8.75C18.4375 9.37501 18.1249 9.68749 17.5 9.99998C18.125 10.3125 18.4375 10.625 18.75 11.25C19.0625 10.6249 19.375 10.3125 20 9.99998C19.375 9.68749 19.0625 9.37497 18.75 8.75Z" fill="black"/>
<path d="M18.75 1.87499C17.8125 1.40622 17.3437 0.937495 16.875 0C16.4062 0.937495 15.9374 1.40626 15 1.87499C15.9375 2.34376 16.4063 2.81248 16.875 3.74998C17.3438 2.81248 17.8125 2.34372 18.75 1.87499Z" fill="black"/>
</g>
<defs>
<clipPath id="clip0_212_12262">
<rect width="20" height="20" fill="white"/>
</clipPath>
</defs>
</svg>
