<svg width="16" height="16" viewBox="0 0 16 16" fill="none" xmlns="http://www.w3.org/2000/svg">
<g clip-path="url(#clip0_212_13098)">
<path d="M15.1914 8.13846L7.23652 0.183557C6.99242 -0.0605347 6.59671 -0.0605347 6.35265 0.183557C6.10859 0.427649 6.10856 0.823365 6.35265 1.06743L6.92636 1.64114L4.03813 7.80131L1.17378 10.6657C0.442724 11.3967 0.442724 12.5862 1.17378 13.3173L2.05768 14.2012C2.79046 14.934 3.97654 14.934 4.70932 14.2012L5.44162 13.4689L7.40795 15.4352C7.76379 15.7997 8.24001 16.0003 8.74953 16.0003C9.7834 16.0003 10.6245 15.1592 10.6245 14.1254C10.6245 13.6158 10.4239 13.1396 10.0594 12.7838L8.28088 11.0053L13.7338 8.44859L14.3076 9.0223C14.5516 9.26639 14.9474 9.26639 15.1914 9.0223C15.4355 8.77824 15.4355 8.38252 15.1914 8.13846ZM3.82542 13.3173C3.58117 13.5616 3.18583 13.5616 2.94155 13.3173L2.05765 12.4334C1.81396 12.1897 1.81396 11.7932 2.05765 11.5496L4.5575 9.04971L6.32527 10.8175L3.82542 13.3173ZM9.18487 13.677C9.30715 13.7958 9.3745 13.955 9.3745 14.1254C9.3745 14.47 9.09412 14.7504 8.7495 14.7504C8.5791 14.7504 8.41985 14.6831 8.30107 14.5608C8.29894 14.5586 6.32543 12.5851 6.32543 12.5851L7.20911 11.7014C7.20917 11.7013 9.18269 13.6749 9.18487 13.677ZM7.34095 10.0654L5.30956 8.034L7.86623 2.58104L12.7939 7.50869L7.34095 10.0654Z" fill="black"/>
<path d="M12.9201 4.05576C13.0766 4.36338 13.4529 4.48592 13.7606 4.32942L15.0328 3.6822C15.3404 3.52567 15.4629 3.14938 15.3064 2.84173C15.1499 2.53407 14.7737 2.41157 14.466 2.56807L13.1938 3.21529C12.8861 3.37182 12.7636 3.7481 12.9201 4.05576Z" fill="black"/>
<path d="M11.319 2.45441C11.6267 2.61091 12.003 2.48838 12.1595 2.18073L12.8067 0.908508C12.9632 0.600852 12.8407 0.224571 12.533 0.068071C12.2253 -0.088429 11.8491 0.034071 11.6926 0.341758L11.0454 1.61398C10.8888 1.92163 11.0114 2.29791 11.319 2.45441Z" fill="black"/>
</g>
<defs>
<clipPath id="clip0_212_13098">
<rect width="16" height="16" fill="white"/>
</clipPath>
</defs>
</svg>
