<svg width="16" height="16" viewBox="0 0 16 16" fill="none" xmlns="http://www.w3.org/2000/svg">
<g clip-path="url(#clip0_212_11835)">
<path d="M9.5672 1.94629C11.3797 2.37109 12.9134 3.5153 13.8521 5.06009L13.0509 5.54694C12.2399 4.21223 10.9152 3.22515 9.35327 2.85907L9.5672 1.94629Z" fill="black"/>
<path d="M13.9058 8.60876C13.9058 8.44323 13.899 8.27935 13.8857 8.11737L14.82 8.04053C14.8354 8.22798 14.8433 8.41749 14.8433 8.60876C14.8433 10.3164 14.2172 11.8791 13.1826 13.0778L12.4729 12.4652C13.3661 11.4303 13.9058 10.0831 13.9058 8.60876Z" fill="black"/>
<path d="M5.70142 14.0508C6.40731 14.3493 7.18377 14.5147 8.00003 14.5147C8.81154 14.5147 9.58372 14.3513 10.2863 14.056L10.6495 14.9203C9.83402 15.263 8.93851 15.4522 8.00003 15.4522C7.05605 15.4522 6.15554 15.2608 5.33618 14.9142L5.70142 14.0508Z" fill="black"/>
<path d="M1.15674 8.60873C1.15674 8.40673 1.16547 8.20664 1.18268 8.00879L2.11667 8.09003C2.10181 8.26081 2.09424 8.4338 2.09424 8.60873C2.09424 10.0831 2.6339 11.4302 3.5271 12.4652L2.81738 13.0777C1.78284 11.879 1.15674 10.3164 1.15674 8.60873Z" fill="black"/>
<path d="M6.6398 2.86072C5.11401 3.22031 3.81523 4.17269 3.0014 5.46265L2.2085 4.96243C3.15036 3.46952 4.65416 2.36552 6.42474 1.94824L6.6398 2.86072Z" fill="black"/>
<path d="M9.83734 5.96436V6.90186H7.99997C7.07151 6.90186 6.31885 7.65452 6.31885 8.58298H5.38135C5.38135 7.13675 6.55374 5.96436 7.99997 5.96436H9.83734Z" fill="black"/>
<path d="M9.0011 2.23444C9.0011 1.68212 8.55336 1.23438 8.00104 1.23438C7.44872 1.23438 7.00098 1.68212 7.00098 2.23444C7.00098 2.78675 7.44872 3.2345 8.00104 3.2345C8.55336 3.2345 9.0011 2.78676 9.0011 2.23444ZM9.9386 2.23444C9.9386 3.30452 9.07112 4.172 8.00104 4.172C6.93095 4.172 6.06348 3.30452 6.06348 2.23444C6.06348 1.16435 6.93095 0.296876 8.00104 0.296875C9.07112 0.296875 9.9386 1.16435 9.9386 2.23444Z" fill="black"/>
<path d="M15.0624 6.63922C15.0624 6.0869 14.6146 5.63916 14.0623 5.63916C13.51 5.63916 13.0623 6.0869 13.0623 6.63922C13.0623 7.19154 13.51 7.63928 14.0623 7.63928C14.6146 7.63928 15.0624 7.19154 15.0624 6.63922ZM15.9999 6.63922C15.9999 7.70931 15.1324 8.57678 14.0623 8.57678C12.9922 8.57678 12.1248 7.70931 12.1248 6.63922C12.1248 5.56914 12.9922 4.70166 14.0623 4.70166C15.1324 4.70166 15.9999 5.56914 15.9999 6.63922Z" fill="black"/>
<path d="M12.7469 13.7657C12.7469 13.2134 12.2992 12.7656 11.7469 12.7656C11.1946 12.7656 10.7468 13.2134 10.7468 13.7657C10.7468 14.318 11.1946 14.7657 11.7469 14.7657C12.2992 14.7657 12.7469 14.318 12.7469 13.7657ZM13.6844 13.7657C13.6844 14.8358 12.817 15.7032 11.7469 15.7032C10.6768 15.7032 9.80933 14.8358 9.80933 13.7657C9.80933 12.6956 10.6768 11.8281 11.7469 11.8281C12.817 11.8281 13.6844 12.6956 13.6844 13.7657Z" fill="black"/>
<path d="M5.2533 13.7657C5.2533 13.2134 4.80555 12.7656 4.25323 12.7656C3.70092 12.7656 3.25317 13.2134 3.25317 13.7657C3.25317 14.318 3.70092 14.7657 4.25323 14.7657C4.80555 14.7657 5.2533 14.318 5.2533 13.7657ZM6.1908 13.7657C6.1908 14.8358 5.32332 15.7032 4.25323 15.7032C3.18315 15.7032 2.31567 14.8358 2.31567 13.7657C2.31567 12.6956 3.18315 11.8281 4.25323 11.8281C5.32332 11.8281 6.1908 12.6956 6.1908 13.7657Z" fill="black"/>
<path d="M2.93762 6.63922C2.93762 6.0869 2.48988 5.63916 1.93756 5.63916C1.38524 5.63916 0.937501 6.0869 0.9375 6.63922C0.9375 7.19154 1.38524 7.63928 1.93756 7.63928C2.48988 7.63928 2.93762 7.19154 2.93762 6.63922ZM3.87512 6.63922C3.87512 7.70931 3.00765 8.57678 1.93756 8.57678C0.867476 8.57678 0 7.70931 0 6.63922C1.03095e-06 5.56914 0.867476 4.70166 1.93756 4.70166C3.00765 4.70166 3.87512 5.56914 3.87512 6.63922Z" fill="black"/>
<path d="M10.5004 6.43292L9.01959 7.9137L8.35669 7.25076L9.17453 6.43289L8.35669 5.61505L9.01959 4.95215L10.5004 6.43292Z" fill="black"/>
<path d="M10.6186 8.58301C10.6186 10.0292 9.4462 11.2016 7.99997 11.2016H6.1626V10.2641H7.99997C8.92843 10.2641 9.68109 9.51147 9.68109 8.58301H10.6186Z" fill="black"/>
<path d="M7.64343 9.91486L6.82556 10.7327L7.64343 11.5506L6.98053 12.2135L5.49976 10.7327L6.98053 9.25195L7.64343 9.91486Z" fill="black"/>
</g>
<defs>
<clipPath id="clip0_212_11835">
<rect width="16" height="16" fill="white"/>
</clipPath>
</defs>
</svg>
