<svg width="16" height="16" viewBox="0 0 16 16" fill="none" xmlns="http://www.w3.org/2000/svg">
<g clip-path="url(#clip0_212_11868)">
<path d="M7.99992 14.6668C4.31792 14.6668 1.33325 11.6822 1.33325 8.00016C1.33325 4.31816 4.31792 1.3335 7.99992 1.3335C11.6819 1.3335 14.6666 4.31816 14.6666 8.00016C14.6666 11.6822 11.6819 14.6668 7.99992 14.6668ZM7.99992 13.3335C9.41441 13.3335 10.771 12.7716 11.7712 11.7714C12.7713 10.7712 13.3333 9.41465 13.3333 8.00016C13.3333 6.58567 12.7713 5.22912 11.7712 4.22893C10.771 3.22873 9.41441 2.66683 7.99992 2.66683C6.58543 2.66683 5.22888 3.22873 4.22868 4.22893C3.22849 5.22912 2.66659 6.58567 2.66659 8.00016C2.66659 9.41465 3.22849 10.7712 4.22868 11.7714C5.22888 12.7716 6.58543 13.3335 7.99992 13.3335ZM5.66658 9.3335H9.33325C9.42166 9.3335 9.50644 9.29838 9.56895 9.23586C9.63147 9.17335 9.66658 9.08857 9.66658 9.00016C9.66658 8.91176 9.63147 8.82697 9.56895 8.76446C9.50644 8.70195 9.42166 8.66683 9.33325 8.66683H6.66658C6.22456 8.66683 5.80063 8.49123 5.48807 8.17867C5.17551 7.86611 4.99992 7.44219 4.99992 7.00016C4.99992 6.55814 5.17551 6.13421 5.48807 5.82165C5.80063 5.50909 6.22456 5.3335 6.66658 5.3335H7.33325V4.00016H8.66658V5.3335H10.3333V6.66683H6.66658C6.57818 6.66683 6.49339 6.70195 6.43088 6.76446C6.36837 6.82697 6.33325 6.91176 6.33325 7.00016C6.33325 7.08857 6.36837 7.17335 6.43088 7.23587C6.49339 7.29838 6.57818 7.3335 6.66658 7.3335H9.33325C9.77528 7.3335 10.1992 7.50909 10.5118 7.82165C10.8243 8.13421 10.9999 8.55814 10.9999 9.00016C10.9999 9.44219 10.8243 9.86611 10.5118 10.1787C10.1992 10.4912 9.77528 10.6668 9.33325 10.6668H8.66658V12.0002H7.33325V10.6668H5.66658V9.3335Z" fill="black"/>
</g>
<defs>
<clipPath id="clip0_212_11868">
<rect width="16" height="16" fill="white"/>
</clipPath>
</defs>
</svg>
