<svg width="20" height="20" viewBox="0 0 20 20" fill="none" xmlns="http://www.w3.org/2000/svg">
<g clip-path="url(#clip0_265_13978)">
<path d="M10.8333 15.0001V16.6667H15.8333V18.3334H10.8333C10.3913 18.3334 9.96736 18.1578 9.6548 17.8453C9.34224 17.5327 9.16665 17.1088 9.16665 16.6667V15.0001H6.66665C5.78259 15.0001 4.93474 14.6489 4.30962 14.0238C3.6845 13.3986 3.33331 12.5508 3.33331 11.6667V5.83341C3.33331 5.6124 3.42111 5.40044 3.57739 5.24416C3.73367 5.08788 3.94563 5.00008 4.16665 5.00008H6.66665V1.66675H8.33331V5.00008H11.6666V1.66675H13.3333V5.00008H15.8333C16.0543 5.00008 16.2663 5.08788 16.4226 5.24416C16.5789 5.40044 16.6666 5.6124 16.6666 5.83341V11.6667C16.6666 12.5508 16.3155 13.3986 15.6903 14.0238C15.0652 14.6489 14.2174 15.0001 13.3333 15.0001H10.8333ZM6.66665 13.3334H13.3333C13.7753 13.3334 14.1993 13.1578 14.5118 12.8453C14.8244 12.5327 15 12.1088 15 11.6667V9.16675H4.99998V11.6667C4.99998 12.1088 5.17557 12.5327 5.48814 12.8453C5.8007 13.1578 6.22462 13.3334 6.66665 13.3334ZM15 6.66675H4.99998V7.50008H15V6.66675ZM9.99998 12.0834C9.77897 12.0834 9.567 11.9956 9.41072 11.8393C9.25444 11.6831 9.16665 11.4711 9.16665 11.2501C9.16665 11.0291 9.25444 10.8171 9.41072 10.6608C9.567 10.5045 9.77897 10.4167 9.99998 10.4167C10.221 10.4167 10.433 10.5045 10.5892 10.6608C10.7455 10.8171 10.8333 11.0291 10.8333 11.2501C10.8333 11.4711 10.7455 11.6831 10.5892 11.8393C10.433 11.9956 10.221 12.0834 9.99998 12.0834Z" fill="black"/>
</g>
<defs>
<clipPath id="clip0_265_13978">
<rect width="20" height="20" fill="white"/>
</clipPath>
</defs>
</svg>
