<svg width="20" height="20" viewBox="0 0 20 20" fill="none" xmlns="http://www.w3.org/2000/svg">
<g clip-path="url(#clip0_212_12278)">
<path d="M5.00002 15.8332H2.50002C2.27901 15.8332 2.06704 15.7454 1.91076 15.5891C1.75448 15.4328 1.66669 15.2209 1.66669 14.9998V6.6665C1.66669 6.44549 1.75448 6.23353 1.91076 6.07725C2.06704 5.92097 2.27901 5.83317 2.50002 5.83317H5.00002V2.49984C5.00002 2.27882 5.08782 2.06686 5.2441 1.91058C5.40038 1.7543 5.61234 1.6665 5.83335 1.6665H14.1667C14.3877 1.6665 14.5997 1.7543 14.7559 1.91058C14.9122 2.06686 15 2.27882 15 2.49984V5.83317H17.5C17.721 5.83317 17.933 5.92097 18.0893 6.07725C18.2456 6.23353 18.3334 6.44549 18.3334 6.6665V14.9998C18.3334 15.2209 18.2456 15.4328 18.0893 15.5891C17.933 15.7454 17.721 15.8332 17.5 15.8332H15V17.4998C15 17.7208 14.9122 17.9328 14.7559 18.0891C14.5997 18.2454 14.3877 18.3332 14.1667 18.3332H5.83335C5.61234 18.3332 5.40038 18.2454 5.2441 18.0891C5.08782 17.9328 5.00002 17.7208 5.00002 17.4998V15.8332ZM5.00002 14.1665V13.3332C5.00002 13.1122 5.08782 12.9002 5.2441 12.7439C5.40038 12.5876 5.61234 12.4998 5.83335 12.4998H14.1667C14.3877 12.4998 14.5997 12.5876 14.7559 12.7439C14.9122 12.9002 15 13.1122 15 13.3332V14.1665H16.6667V7.49984H3.33335V14.1665H5.00002ZM6.66669 3.33317V5.83317H13.3334V3.33317H6.66669ZM6.66669 14.1665V16.6665H13.3334V14.1665H6.66669ZM4.16669 8.33317H6.66669V9.99984H4.16669V8.33317Z" fill="black"/>
</g>
<defs>
<clipPath id="clip0_212_12278">
<rect width="20" height="20" fill="white"/>
</clipPath>
</defs>
</svg>
