<svg width="15" height="16" viewBox="0 0 15 16" fill="none" xmlns="http://www.w3.org/2000/svg">
<path d="M2.44653 12.1816C2.44661 11.6331 2.6342 11.1675 2.96436 10.802C3.28121 10.4512 3.70761 10.2155 4.16479 10.052C5.07358 9.72701 6.2703 9.63086 7.49072 9.63086C8.71857 9.63087 9.91558 9.73058 10.8232 10.0598C11.28 10.2255 11.7048 10.4637 12.02 10.816C12.3481 11.1829 12.5341 11.6485 12.5342 12.1957C12.5342 12.7443 12.3465 13.2098 12.0164 13.5754C11.6996 13.9261 11.2737 14.1618 10.8167 14.3254C9.908 14.6505 8.71128 14.7473 7.49072 14.7473C6.26279 14.7473 5.06533 14.6475 4.15747 14.3184C3.70066 14.1527 3.27597 13.9145 2.96069 13.5621C2.63243 13.1952 2.44653 12.7291 2.44653 12.1816ZM3.57153 12.1816C3.57153 12.4148 3.64222 12.5854 3.77441 12.7332C3.91963 12.8955 4.15972 13.0512 4.51929 13.1816C5.24459 13.4446 6.28838 13.5473 7.49072 13.5473C8.68724 13.5473 9.73105 13.4481 10.4585 13.1879C10.8194 13.0588 11.0606 12.9039 11.2063 12.7426C11.3385 12.5961 11.4092 12.4273 11.4092 12.1957C11.4091 11.9629 11.3384 11.7927 11.2063 11.6449C11.0611 11.4826 10.821 11.3269 10.4614 11.1965C9.73631 10.9334 8.69295 10.8309 7.49072 10.8309C6.2941 10.8309 5.24985 10.9293 4.52222 11.1895C4.16125 11.3185 3.92014 11.4734 3.77441 11.6348C3.64213 11.7813 3.5716 11.9499 3.57153 12.1816Z" fill="black"/>
<path d="M9.79982 4.93965C9.79972 3.57905 8.76608 2.47637 7.4905 2.47637C6.2148 2.47642 5.18055 3.57925 5.18044 4.93965V4.94199C5.1762 6.29705 6.20269 7.39908 7.47219 7.40371H7.4905C8.766 7.40371 9.79982 6.3005 9.79982 4.93965ZM10.9248 4.93965C10.9248 6.96292 9.38762 8.60371 7.4905 8.60371H7.46853C5.57745 8.59687 4.04918 6.95553 4.05544 4.93809C4.05634 2.91533 5.59428 1.27642 7.4905 1.27637C9.3874 1.27637 10.9247 2.91631 10.9248 4.93965Z" fill="black"/>
</svg>
