<svg width="20" height="20" viewBox="0 0 20 20" fill="none" xmlns="http://www.w3.org/2000/svg">
<g clip-path="url(#clip0_200_11488)">
<path d="M4.55249 3.69426C6.06462 2.38397 7.99915 1.66396 9.99999 1.66676C14.6025 1.66676 18.3333 5.39759 18.3333 10.0001C18.3333 11.7801 17.775 13.4301 16.825 14.7834L14.1667 10.0001H16.6667C16.6668 8.69311 16.2827 7.41493 15.5622 6.32447C14.8417 5.23401 13.8166 4.37939 12.6143 3.86686C11.412 3.35433 10.0856 3.20651 8.79995 3.44177C7.51432 3.67703 6.3262 4.28501 5.38332 5.19009L4.55249 3.69426ZM15.4475 16.3059C13.9354 17.6162 12.0008 18.3362 9.99999 18.3334C5.39749 18.3334 1.66666 14.6026 1.66666 10.0001C1.66666 8.22009 2.22499 6.57009 3.17499 5.21676L5.83332 10.0001H3.33332C3.33322 11.3071 3.71728 12.5853 4.43777 13.6757C5.15826 14.7662 6.18338 15.6208 7.38567 16.1333C8.58797 16.6458 9.91439 16.7937 11.2 16.5584C12.4857 16.3231 13.6738 15.7152 14.6167 14.8101L15.4475 16.3059Z" fill="black"/>
</g>
<defs>
<clipPath id="clip0_200_11488">
<rect width="20" height="20" fill="white"/>
</clipPath>
</defs>
</svg>
