<svg width="16" height="16" viewBox="0 0 16 16" fill="none" xmlns="http://www.w3.org/2000/svg">
<g clip-path="url(#clip0_212_12161)">
<path d="M7.74999 11.25C8.09521 11.25 8.37499 11.5298 8.37499 11.875C8.37499 12.2202 8.09521 12.5 7.74999 12.5H6.87499C6.52978 12.5 6.24999 12.2202 6.24999 11.875C6.24999 11.5298 6.52978 11.25 6.87499 11.25H7.74999ZM12.875 7.90624C12.875 7.56103 12.5952 7.28124 12.25 7.28124H6.87499C6.52978 7.28124 6.24999 7.56103 6.24999 7.90624C6.24999 8.25146 6.52978 8.53124 6.87499 8.53124H12.25C12.5952 8.53124 12.875 8.25146 12.875 7.90624ZM6.87499 4.78125H12.25C12.5952 4.78125 12.875 4.50146 12.875 4.15625C12.875 3.81103 12.5952 3.53125 12.25 3.53125H6.87499C6.52978 3.53125 6.24999 3.81103 6.24999 4.15625C6.24999 4.50146 6.52978 4.78125 6.87499 4.78125ZM4.375 11.25H3.75C3.40478 11.25 3.125 11.5298 3.125 11.875C3.125 12.2202 3.40478 12.5 3.75 12.5H4.375C4.72021 12.5 4.99999 12.2202 4.99999 11.875C4.99999 11.5298 4.72021 11.25 4.375 11.25ZM4.375 7.28124H3.75C3.40478 7.28124 3.125 7.56103 3.125 7.90624C3.125 8.25146 3.40478 8.53124 3.75 8.53124H4.375C4.72021 8.53124 4.99999 8.25146 4.99999 7.90624C4.99999 7.56103 4.72021 7.28124 4.375 7.28124ZM4.375 3.53125H3.75C3.40478 3.53125 3.125 3.81103 3.125 4.15625C3.125 4.50146 3.40478 4.78125 3.75 4.78125H4.375C4.72021 4.78125 4.99999 4.50146 4.99999 4.15625C4.99999 3.81103 4.72021 3.53125 4.375 3.53125ZM15.817 14.933C16.061 15.1771 16.061 15.5729 15.817 15.8169C15.6949 15.9389 15.5349 16 15.375 16C15.2151 16 15.055 15.9389 14.933 15.817L13.8757 14.7598C13.4547 15.0113 12.9628 15.1562 12.4375 15.1562C10.8867 15.1562 9.62499 13.8945 9.62499 12.3437C9.62499 10.793 10.8867 9.53124 12.4375 9.53124C13.9883 9.53124 15.25 10.793 15.25 12.3437C15.25 12.9176 15.0771 13.4516 14.7809 13.8971L15.817 14.933ZM12.4375 13.9062C13.2991 13.9062 14 13.2053 14 12.3437C14 11.4822 13.2991 10.7812 12.4375 10.7812C11.5759 10.7812 10.875 11.4822 10.875 12.3437C10.875 13.2053 11.5759 13.9062 12.4375 13.9062ZM13.5 0H2.5C1.12146 0 0 1.12146 0 2.5V13.5C0 14.8785 1.12146 16 2.5 16H8.93749C9.28271 16 9.56249 15.7202 9.56249 15.375C9.56249 15.0298 9.28271 14.75 8.93749 14.75H2.5C1.81079 14.75 1.25 14.1892 1.25 13.5V2.5C1.25 1.81079 1.81079 1.25 2.5 1.25H13.5C14.1892 1.25 14.75 1.81079 14.75 2.5V8.68749C14.75 9.03271 15.0298 9.31249 15.375 9.31249C15.7202 9.31249 16 9.03271 16 8.68749V2.5C16 1.12146 14.8785 0 13.5 0Z" fill="black"/>
</g>
<defs>
<clipPath id="clip0_212_12161">
<rect width="16" height="16" fill="white"/>
</clipPath>
</defs>
</svg>
