<svg width="16" height="16" viewBox="0 0 16 16" fill="none" xmlns="http://www.w3.org/2000/svg">
<g clip-path="url(#clip0_264_4630)">
<path d="M13.3556 8.00089C13.3556 8.30242 13.6 8.54688 13.9016 8.54688H15.4539C15.7555 8.54688 15.9999 8.30242 15.9999 8.00089C15.9999 7.69929 15.7555 7.4549 15.4539 7.4549H13.9016C13.6 7.4549 13.3556 7.69936 13.3556 8.00089Z" fill="black"/>
<path d="M2.64471 8.00089C2.64471 7.69929 2.40025 7.4549 2.09872 7.4549H0.54623C0.2447 7.4549 0.000244141 7.69929 0.000244141 8.00089C0.000244141 8.30242 0.2447 8.54688 0.54623 8.54688H2.09872C2.40025 8.54688 2.64471 8.30242 2.64471 8.00089Z" fill="black"/>
<path d="M11.7867 12.5588L12.8842 13.6569C13.0974 13.8702 13.4431 13.8702 13.6563 13.6571C13.763 13.5504 13.8163 13.4107 13.8163 13.2709C13.8163 13.1312 13.7631 12.9916 13.6566 12.8849L12.5591 11.7868C12.3459 11.5735 12.0002 11.5735 11.787 11.7866C11.5737 11.9999 11.5737 12.3456 11.7867 12.5588Z" fill="black"/>
<path d="M4.37278 3.8276C4.37278 3.6879 4.31949 3.5482 4.21291 3.44155L3.11541 2.34361C2.90218 2.13038 2.55654 2.13031 2.34324 2.34346C2.12994 2.55669 2.12987 2.90233 2.34316 3.11563L3.44067 4.21357C3.65382 4.4268 3.99954 4.42687 4.21277 4.21372C4.31949 4.10714 4.37278 3.96737 4.37278 3.8276Z" fill="black"/>
<path d="M8.00021 13.3557C7.69868 13.3557 7.45422 13.6001 7.45422 13.9017V15.454C7.45422 15.7555 7.69868 16 8.00021 16C8.30174 16 8.54619 15.7555 8.54619 15.454V13.9017C8.54619 13.6001 8.30174 13.3557 8.00021 13.3557Z" fill="black"/>
<path d="M7.45422 0.545959V2.09903C7.45422 2.40064 7.69868 2.64502 8.00021 2.64502C8.30174 2.64502 8.54619 2.40064 8.54619 2.09903V0.545959C8.54619 0.244357 8.30174 -2.6226e-05 8.00021 -2.6226e-05C7.69875 -2.6226e-05 7.45422 0.244357 7.45422 0.545959Z" fill="black"/>
<path d="M4.21294 12.559C4.31952 12.4524 4.37281 12.3126 4.37281 12.1729C4.37281 12.0332 4.31952 11.8935 4.21294 11.7869C3.99972 11.5737 3.654 11.5737 3.44077 11.7869L2.34327 12.8844C2.13004 13.0976 2.13004 13.4433 2.34327 13.6565C2.55649 13.8697 2.90221 13.8697 3.11537 13.6565L4.21294 12.559Z" fill="black"/>
<path d="M11.7869 3.44089C11.5737 3.65412 11.5736 3.99984 11.7868 4.21306C12.0001 4.42636 12.3458 4.42636 12.5589 4.21314L13.6564 3.11578C13.7631 3.00913 13.8164 2.86943 13.8164 2.72966C13.8164 2.58996 13.7631 2.45019 13.6565 2.34361C13.4433 2.13031 13.0976 2.13031 12.8844 2.34354L11.7869 3.44089Z" fill="black"/>
<path d="M3.75049 8.00007C3.75049 10.3432 5.65692 12.2495 8.00022 12.2495C10.3434 12.2495 12.2498 10.3432 12.2498 8.00007C12.2498 5.6567 10.3434 3.75026 8.00022 3.75026C5.65692 3.75026 3.75049 5.65677 3.75049 8.00007ZM11.1578 8.00007C11.1578 9.74111 9.74133 11.1575 8.00022 11.1575C6.25904 11.1575 4.84246 9.74111 4.84246 8.00007C4.84246 6.25881 6.25904 4.84223 8.00022 4.84223C9.74133 4.84223 11.1578 6.25881 11.1578 8.00007Z" fill="black"/>
</g>
<defs>
<clipPath id="clip0_264_4630">
<rect width="16" height="16" fill="white" transform="matrix(0 -1 1 0 0 16)"/>
</clipPath>
</defs>
</svg>
