<svg width="16" height="16" viewBox="0 0 16 16" fill="none" xmlns="http://www.w3.org/2000/svg">
<path d="M12.0669 4.33359C12.0669 4.55451 11.8878 4.73359 11.6669 4.73359C11.446 4.73359 11.2669 4.55451 11.2669 4.33359C11.2669 4.11268 11.446 3.93359 11.6669 3.93359C11.8878 3.93359 12.0669 4.11268 12.0669 4.33359ZM13.2669 4.33359C13.2669 3.44994 12.5506 2.73359 11.6669 2.73359C10.7832 2.73359 10.0669 3.44994 10.0669 4.33359C10.0669 5.21725 10.7832 5.93359 11.6669 5.93359C12.5506 5.93359 13.2669 5.21725 13.2669 4.33359Z" fill="black"/>
<path d="M8.32256 0.842071C8.93089 0.786174 10.1232 0.699101 11.2913 0.74754C11.8743 0.771725 12.4714 0.830386 12.9952 0.950665C13.4992 1.06643 14.0278 1.25915 14.3843 1.61551C14.7408 1.97202 14.9341 2.50045 15.0499 3.00457C15.1702 3.52842 15.2281 4.12545 15.2523 4.70848C15.3007 5.87655 15.2144 7.06878 15.1585 7.67723C15.1217 8.07737 14.9578 8.44635 14.703 8.74285C12.894 10.8477 11.0186 12.7641 8.971 14.5975C7.99796 15.4688 6.54776 15.4765 5.53741 14.6944C3.9243 13.4454 2.55514 12.0763 1.30616 10.4632C0.523876 9.45281 0.531752 8.00268 1.40303 7.02957C3.23635 4.98203 5.15224 3.10647 7.25694 1.29754C7.5534 1.04275 7.92247 0.8789 8.32256 0.842071ZM11.2421 1.94676C10.1525 1.90156 9.02147 1.98251 8.43272 2.0366C8.29152 2.04958 8.15476 2.1074 8.03897 2.20692C5.97325 3.98233 4.09478 5.82149 2.29678 7.82957C1.83055 8.35028 1.80934 9.15372 2.2546 9.72879C3.44152 11.2617 4.73882 12.5591 6.27178 13.746C6.84684 14.1911 7.65036 14.17 8.171 13.7038C10.1791 11.9058 12.0175 10.0265 13.7929 7.96082C13.8923 7.8451 13.9502 7.70896 13.9632 7.56785C14.0173 6.97913 14.099 5.84811 14.0538 4.75848C14.0312 4.21267 13.9777 3.69688 13.8804 3.27332C13.7785 2.82997 13.6476 2.57573 13.5358 2.46395C13.424 2.35225 13.1701 2.22194 12.7273 2.1202C12.3037 2.02293 11.7878 1.96941 11.2421 1.94676Z" fill="black"/>
<path d="M4.24263 8.90913C4.47695 8.67482 4.85675 8.67482 5.09107 8.90913L7.09107 10.9091C7.32538 11.1434 7.32538 11.5233 7.09107 11.7576C6.85675 11.9919 6.47694 11.9919 6.24263 11.7576L4.24263 9.75757C4.00832 9.52326 4.00832 9.14345 4.24263 8.90913Z" fill="black"/>
</svg>
