<svg width="20" height="20" viewBox="0 0 20 20" fill="none" xmlns="http://www.w3.org/2000/svg">
<path d="M14.6834 8.01685H10.3084C9.96674 8.01685 9.68341 7.73351 9.68341 7.39185C9.68341 7.05018 9.96674 6.76685 10.3084 6.76685H14.6834C15.0251 6.76685 15.3084 7.05018 15.3084 7.39185C15.3084 7.73351 15.0334 8.01685 14.6834 8.01685Z" fill="black"/>
<path d="M5.93298 8.65029C5.77464 8.65029 5.61631 8.59195 5.49131 8.46695L4.86631 7.84193C4.62464 7.60026 4.62464 7.20026 4.86631 6.95859C5.10798 6.71693 5.50798 6.71693 5.74964 6.95859L5.93298 7.14193L7.36631 5.70859C7.60798 5.46693 8.00798 5.46693 8.24964 5.70859C8.49133 5.95026 8.49133 6.35026 8.24964 6.59193L6.37464 8.46695C6.25798 8.58362 6.09964 8.65029 5.93298 8.65029Z" fill="black"/>
<path d="M14.6834 13.8501H10.3084C9.96674 13.8501 9.68341 13.5668 9.68341 13.2251C9.68341 12.8834 9.96674 12.6001 10.3084 12.6001H14.6834C15.0251 12.6001 15.3084 12.8834 15.3084 13.2251C15.3084 13.5668 15.0334 13.8501 14.6834 13.8501Z" fill="black"/>
<path d="M5.93298 14.4835C5.77464 14.4835 5.61631 14.4252 5.49131 14.3002L4.86631 13.6752C4.62464 13.4335 4.62464 13.0335 4.86631 12.7918C5.10798 12.5502 5.50798 12.5502 5.74964 12.7918L5.93298 12.9752L7.36631 11.5418C7.60798 11.3002 8.00798 11.3002 8.24964 11.5418C8.49133 11.7835 8.49133 12.1835 8.24964 12.4252L6.37464 14.3002C6.25798 14.4168 6.09964 14.4835 5.93298 14.4835Z" fill="black"/>
<path d="M12.5 18.9584H7.50002C2.97502 18.9584 1.04169 17.0251 1.04169 12.5001V7.50008C1.04169 2.97508 2.97502 1.04175 7.50002 1.04175H12.5C17.025 1.04175 18.9584 2.97508 18.9584 7.50008V12.5001C18.9584 17.0251 17.025 18.9584 12.5 18.9584ZM7.50002 2.29175C3.65835 2.29175 2.29169 3.65841 2.29169 7.50008V12.5001C2.29169 16.3417 3.65835 17.7084 7.50002 17.7084H12.5C16.3417 17.7084 17.7084 16.3417 17.7084 12.5001V7.50008C17.7084 3.65841 16.3417 2.29175 12.5 2.29175H7.50002Z" fill="black"/>
</svg>
