<svg width="20" height="20" viewBox="0 0 20 20" fill="none" xmlns="http://www.w3.org/2000/svg">
<g clip-path="url(#clip0_264_12227)">
<path d="M19.375 10.6251C19.7202 10.6251 20 10.3453 20 10.0001C20 9.65491 19.7202 9.37511 19.375 9.37511H13.6971V5.33612C14.7251 5.06003 15.4842 4.1205 15.4842 3.00659C15.4842 1.67655 14.4021 0.594482 13.0721 0.594482C11.7421 0.594482 10.66 1.67655 10.66 3.00659C10.66 4.1205 11.4191 5.06003 12.4471 5.33612V9.37511H4.04914V5.33612C5.07711 5.06003 5.83625 4.1205 5.83625 3.00659C5.83625 1.67655 4.75418 0.594482 3.42414 0.594482C2.0941 0.594482 1.01203 1.67655 1.01203 3.00659C1.01203 4.1205 1.77117 5.06003 2.79914 5.33612V9.37511H0.625C0.279844 9.37511 0 9.65491 0 10.0001C0 10.3453 0.279844 10.6251 0.625 10.6251H6.9793V14.6641C5.95133 14.9402 5.19219 15.8797 5.19219 16.9936C5.19219 18.3237 6.27426 19.4057 7.6043 19.4057C8.93434 19.4057 10.0164 18.3237 10.0164 16.9936C10.0164 15.8797 9.25727 14.9402 8.2293 14.6641V10.6251H16.6272V14.6641C15.5993 14.9402 14.8401 15.8797 14.8401 16.9936C14.8401 18.3237 15.9222 19.4057 17.2523 19.4057C18.5823 19.4057 19.6644 18.3237 19.6644 16.9936C19.6644 15.8797 18.9052 14.9402 17.8773 14.6641V10.6251H19.375ZM11.91 3.00659C11.91 2.36581 12.4313 1.84448 13.0721 1.84448C13.7129 1.84448 14.2342 2.36581 14.2342 3.00659C14.2342 3.64737 13.7129 4.1687 13.0721 4.1687C12.4313 4.1687 11.91 3.64737 11.91 3.00659ZM2.26203 3.00659C2.26203 2.36581 2.78336 1.84448 3.42414 1.84448C4.06492 1.84448 4.58625 2.36581 4.58625 3.00659C4.58625 3.64737 4.06492 4.1687 3.42414 4.1687C2.78336 4.1687 2.26203 3.64737 2.26203 3.00659ZM8.76641 16.9936C8.76641 17.6344 8.24508 18.1557 7.6043 18.1557C6.96352 18.1557 6.44219 17.6344 6.44219 16.9936C6.44219 16.3528 6.96352 15.8315 7.6043 15.8315C8.24508 15.8315 8.76641 16.3528 8.76641 16.9936ZM18.4144 16.9936C18.4144 17.6344 17.893 18.1557 17.2523 18.1557C16.6114 18.1557 16.0901 17.6344 16.0901 16.9936C16.0901 16.3528 16.6114 15.8315 17.2523 15.8315C17.8931 15.8315 18.4144 16.3528 18.4144 16.9936Z" fill="black"/>
</g>
<defs>
<clipPath id="clip0_264_12227">
<rect width="20" height="20" fill="white"/>
</clipPath>
</defs>
</svg>
