<svg width="16" height="16" viewBox="0 0 16 16" fill="none" xmlns="http://www.w3.org/2000/svg">
<path d="M10.5949 9.26095C10.7823 9.0735 11.0863 9.0735 11.2738 9.26095C11.461 9.44837 11.461 9.75166 11.2738 9.93908L8.60736 12.6063C8.41995 12.7937 8.11592 12.7936 7.92845 12.6063L5.26205 9.93908C5.0746 9.75162 5.0746 9.4484 5.26205 9.26095C5.4495 9.0735 5.75272 9.0735 5.94017 9.26095L8.26752 11.5875L10.5949 9.26095Z" fill="black"/>
<path d="M10.5949 7.00638C10.7823 7.19384 11.0863 7.19384 11.2738 7.00638C11.461 6.81897 11.461 6.51568 11.2738 6.32826L8.60736 3.66107C8.41995 3.47366 8.11592 3.47375 7.92845 3.66107L5.26205 6.32826C5.0746 6.51571 5.0746 6.81893 5.26205 7.00638C5.4495 7.19384 5.75272 7.19384 5.94017 7.00638L8.26752 4.67982L10.5949 7.00638Z" fill="black"/>
</svg>
