<svg width="135" height="48" viewBox="0 0 135 48" fill="none" xmlns="http://www.w3.org/2000/svg">
<path fill-rule="evenodd" clip-rule="evenodd" d="M20.018 3.54023C18.3686 5.48736 16.9916 7.11228 16.958 7.15117C16.958 7.15117 14.8104 7.05646 12.2602 6.85416C9.70989 6.65186 7.60016 6.51126 7.5719 6.5417C7.54365 6.57214 11.0072 10.0864 15.2688 14.3514L23.0171 22.1057L23.0406 16.5931C23.0536 13.5612 23.0536 8.58731 23.0406 5.54023L23.0171 0L20.018 3.54023ZM33.4091 15.493L25.661 23.3103H36.63C43.5741 23.3103 47.5878 23.2781 47.5685 23.2223C47.5518 23.174 45.9496 21.7656 44.0081 20.0927L40.4779 17.0509L40.5237 16.6634C40.6191 15.8554 41.2106 7.92552 41.1846 7.80349C41.1695 7.73315 37.6706 11.1934 33.4091 15.493ZM0.00500602 24.8506C0.00865228 24.9015 5.127 29.3475 6.9339 30.8692L7.11986 31.0257L6.75268 35.6914C6.55077 38.2575 6.40665 40.3784 6.43254 40.4044C6.48577 40.4581 21.8776 24.958 21.8776 24.8508C21.8776 24.8127 16.9552 24.7816 10.9389 24.7816C4.92253 24.7816 0.00227133 24.8126 0.00500602 24.8506ZM24.6123 37.0084C24.6123 46.2772 24.6323 48.0634 24.7346 47.9507C24.8018 47.8767 26.1787 46.254 27.7942 44.3448C29.4098 42.4357 30.7499 40.8736 30.7722 40.8736C30.7946 40.8736 32.8899 41.04 35.4285 41.2434C37.9671 41.4468 40.0571 41.6003 40.0728 41.5843C40.0886 41.5684 36.6165 38.04 32.3569 33.7434L24.6123 25.9314V37.0084Z" fill="#E8580C"/>
<path fill-rule="evenodd" clip-rule="evenodd" d="M36.5882 24.8416L25.6297 24.8427L33.3859 32.6668C38.2962 37.62 41.1568 40.4601 41.1823 40.4069C41.2044 40.3608 41.0587 38.2221 40.8585 35.6543L40.4945 30.9854L40.7985 30.7441C41.4323 30.2408 47.4092 25.0553 47.4764 24.9505C47.5151 24.8901 42.6154 24.841 36.5882 24.8416ZM6.40847 7.63151C6.37534 7.67014 6.87804 14.4648 7.08901 16.8297L7.1108 17.073L3.58066 20.1102C1.63914 21.7807 0.0505265 23.1776 0.0505916 23.2145C0.0505903 23.2904 21.7995 23.3091 21.8746 23.2332C21.9013 23.2063 18.4424 19.6732 14.1882 15.3818C9.93403 11.0904 6.43316 7.60271 6.40847 7.63151Z" fill="#E8950C"/>
<path fill-rule="evenodd" clip-rule="evenodd" d="M22.9802 36.9365L22.9792 25.8821L15.2229 33.7063C10.3127 38.6594 7.49723 41.5452 7.5499 41.5708C7.5956 41.5931 9.71579 41.4461 12.2613 41.2442L16.8897 40.877L17.129 41.1836C17.6279 41.8231 22.7683 47.8522 22.8722 47.92C22.9322 47.959 22.9808 43.0165 22.9802 36.9365ZM40.041 6.49276C40.0027 6.45934 33.267 6.96644 30.9226 7.17925L30.6814 7.20123L27.6706 3.64021C26.0146 1.6817 24.6298 0.079184 24.5933 0.0792497C24.518 0.0792484 24.4995 22.0184 24.5746 22.0942C24.6013 22.1211 28.1038 18.632 32.358 14.3406C36.6122 10.0492 40.0696 6.51766 40.041 6.49276Z" fill="#FF7E00"/>
<path fill-rule="evenodd" clip-rule="evenodd" d="M57.6315 8.8861C56.6506 9.0462 55.7282 9.76289 55.3015 10.6964C55.0086 11.3372 55.0226 12.6055 55.3297 13.2413C56.149 14.9382 58.2653 15.5754 59.8066 14.5893C61.0732 13.779 61.6042 12.0563 61.0065 10.6964C60.7583 10.1317 60.1375 9.46183 59.6149 9.19461C59.2448 9.00546 59.0279 8.94643 58.2945 8.83525C58.1942 8.82008 57.8959 8.84298 57.6315 8.8861ZM110.013 12.6429C108.678 12.8326 107.54 13.0162 107.484 13.051C107.414 13.0947 107.382 13.8216 107.382 15.4045V17.6948L106.402 17.721L105.422 17.7471L105.398 19.839L105.373 21.931H106.378H107.382L107.385 24.9425C107.388 28.5286 107.497 30.9422 107.693 31.795C107.926 32.8077 108.332 33.4614 109.056 33.9907L109.415 34.2528H112.865C114.763 34.2528 116.315 34.2218 116.314 34.1839C116.313 34.1459 116.034 33.9831 115.694 33.8222C114.866 33.4301 114.024 32.7921 113.693 32.3058C113.037 31.3439 112.943 30.5209 112.943 25.7265V21.931H114.992H117.041L117.066 20.0432L117.09 18.1554L119.916 26.0798C121.471 30.4382 122.754 34.0738 122.769 34.1589C122.811 34.3976 121.864 36.5343 121.186 37.7311C120.26 39.3657 118.872 41.2541 117.968 42.1091C117.811 42.2576 117.683 42.4134 117.683 42.4551C117.683 42.497 119.064 42.5202 120.752 42.5069L123.822 42.4827L128.867 30.2988C131.641 23.5976 133.936 18.0211 133.966 17.9065L134.02 17.6982L131.484 17.7226L128.948 17.7471L127.372 21.885C126.506 24.1609 125.785 26.0571 125.771 26.099C125.757 26.1407 125.176 24.32 124.479 22.053C123.782 19.7859 123.173 17.8793 123.126 17.816C123.058 17.7265 121.922 17.7011 117.991 17.7011H112.943V14.9884V12.2758L112.692 12.2869C112.554 12.2931 111.349 12.4533 110.013 12.6429ZM58.3401 17.4605L55.7421 17.8429L55.7189 26.0479L55.6956 34.2528H58.4764H61.2571V25.6551C61.2571 17.5242 61.2484 17.058 61.0976 17.0678C61.0099 17.0736 59.769 17.2503 58.3401 17.4605ZM74.8906 17.2091C73.5005 17.5097 72.3354 18.1941 71.1274 19.4193L70.378 20.1794L70.3526 18.9633L70.3272 17.7471H67.8204H65.3136L65.2903 25.9999L65.267 34.2528H68.0478H70.8285L70.8296 29.5402C70.8308 24.5108 70.8422 24.361 71.2938 23.4489C71.5509 22.9296 72.0718 22.4376 72.6405 22.177C72.966 22.0278 73.2486 21.983 73.8823 21.9804C74.9539 21.9759 75.3913 22.196 75.7966 22.9437L76.07 23.4482L76.0963 28.8505L76.1225 34.2528H78.8993H81.6762V28.2824C81.6762 21.8691 81.647 21.348 81.2217 20.1726C80.7775 18.945 80.0656 18.1273 78.9933 17.6134C77.8903 17.0847 76.225 16.9207 74.8906 17.2091ZM91.8719 17.2012C89.228 17.6839 86.9645 19.4674 85.8174 21.9719C84.5548 24.7287 84.7558 28.543 86.2887 30.9136C86.7554 31.6353 87.8866 32.7565 88.5704 33.175C89.7558 33.9007 91.1158 34.2528 92.7332 34.2528C93.9777 34.2528 94.8616 34.0525 95.9649 33.5205L96.717 33.1578V34.0227C96.717 35.0709 96.594 35.6985 96.2575 36.3678C95.5823 37.711 94.2075 38.3796 92.3415 38.2725C90.8356 38.186 89.1223 37.4816 87.2186 36.1663C86.7739 35.8591 86.3893 35.6287 86.3639 35.6544C86.3384 35.6799 86.3462 36.9016 86.3811 38.369L86.4445 41.037L87.7107 41.4677C91.3053 42.6905 94.4531 42.8342 97.0831 41.8953C98.0531 41.549 98.7226 41.1305 99.5264 40.3678C101.067 38.9058 101.802 37.1652 102.003 34.4957C102.109 33.103 102.13 17.8216 102.027 17.7694C101.989 17.7504 100.926 17.7733 99.6648 17.8202L97.371 17.9055L96.4966 17.6116C94.8687 17.0646 93.3559 16.9303 91.8719 17.2012ZM96.0561 21.5576L96.5347 21.7697V25.6126V29.4556L96.0921 29.7833C95.3073 30.3644 94.7511 30.5727 93.9823 30.5736C93.4193 30.5744 93.202 30.5284 92.7512 30.3133C91.7498 29.8353 90.9255 28.6814 90.6504 27.3723C90.0986 24.7456 91.2609 22.2112 93.3637 21.456C94.0482 21.2102 95.3863 21.2607 96.0561 21.5576Z" fill="#666666"/>
</svg>
