<svg width="135" height="48" viewBox="0 0 135 48" fill="none" xmlns="http://www.w3.org/2000/svg">
<path fill-rule="evenodd" clip-rule="evenodd" d="M20.018 3.54023C18.3685 5.48736 16.9915 7.11228 16.958 7.15117C16.958 7.15117 14.8103 7.05646 12.2601 6.85416C9.70983 6.65186 7.6001 6.51126 7.57184 6.5417C7.54358 6.57214 11.0072 10.0864 15.2687 14.3514L23.017 22.1057L23.0405 16.5931C23.0535 13.5612 23.0535 8.58731 23.0405 5.54023L23.017 0L20.018 3.54023ZM33.409 15.493L25.6609 23.3103H36.63C43.5741 23.3103 47.5877 23.2781 47.5685 23.2223C47.5518 23.174 45.9495 21.7656 44.008 20.0927L40.4779 17.0509L40.5236 16.6634C40.6191 15.8554 41.2105 7.92552 41.1845 7.80349C41.1695 7.73315 37.6705 11.1934 33.409 15.493ZM0.00494499 24.8506C0.00859125 24.9015 5.12694 29.3475 6.93384 30.8692L7.1198 31.0257L6.75262 35.6914C6.55071 38.2575 6.40659 40.3784 6.43248 40.4044C6.48571 40.4581 21.8776 24.958 21.8776 24.8508C21.8776 24.8127 16.9551 24.7816 10.9388 24.7816C4.92247 24.7816 0.00221029 24.8126 0.00494499 24.8506ZM24.6123 37.0084C24.6123 46.2772 24.6322 48.0634 24.7345 47.9507C24.8018 47.8767 26.1786 46.254 27.7942 44.3448C29.4097 42.4357 30.7498 40.8736 30.7722 40.8736C30.7945 40.8736 32.8898 41.04 35.4284 41.2434C37.9671 41.4468 40.057 41.6003 40.0728 41.5843C40.0885 41.5684 36.6164 38.04 32.3568 33.7434L24.6123 25.9314V37.0084Z" fill="#E8580C"/>
<path fill-rule="evenodd" clip-rule="evenodd" d="M36.5881 24.8416L25.6296 24.8427L33.3859 32.6668C38.2961 37.62 41.1568 40.4601 41.1822 40.4069C41.2044 40.3608 41.0586 38.2221 40.8584 35.6543L40.4944 30.9854L40.7984 30.7441C41.4323 30.2408 47.4092 25.0553 47.4763 24.9505C47.515 24.8901 42.6153 24.841 36.5881 24.8416ZM6.40841 7.63151C6.37528 7.67014 6.87798 14.4648 7.08895 16.8297L7.11074 17.073L3.5806 20.1102C1.63908 21.7807 0.0504655 23.1776 0.0505306 23.2145C0.0505293 23.2904 21.7994 23.3091 21.8746 23.2332C21.9012 23.2063 18.4423 19.6732 14.1882 15.3818C9.93397 11.0904 6.4331 7.60271 6.40841 7.63151Z" fill="#E8950C"/>
<path fill-rule="evenodd" clip-rule="evenodd" d="M22.9801 36.9363L22.9791 25.8819L15.2228 33.706C10.3125 38.6592 7.49711 41.5449 7.54977 41.5706C7.59547 41.5929 9.71567 41.4459 12.2612 41.2439L16.8896 40.8768L17.1288 41.1834C17.6277 41.8228 22.7682 47.852 22.8721 47.9197C22.9321 47.9587 22.9807 43.0162 22.9801 36.9363ZM40.0409 6.49251C40.0026 6.45909 33.2669 6.96619 30.9225 7.17901L30.6813 7.20099L27.6705 3.63996C26.0145 1.68146 24.6297 0.0789399 24.5931 0.0790056C24.5178 0.0790042 24.4993 22.0182 24.5745 22.094C24.6012 22.1209 28.1037 18.6317 32.3579 14.3403C36.612 10.0489 40.0695 6.51742 40.0409 6.49251Z" fill="#FF7E00"/>
<path fill-rule="evenodd" clip-rule="evenodd" d="M57.6315 8.88623C56.6507 9.04632 55.7283 9.76301 55.3016 10.6965C55.0087 11.3374 55.0227 12.6056 55.3297 13.2414C56.149 14.9383 58.2653 15.5755 59.8067 14.5894C61.0733 13.7791 61.6043 12.0564 61.0066 10.6965C60.7584 10.1318 60.1376 9.46195 59.615 9.19473C59.2449 9.00558 59.0279 8.94655 58.2946 8.83538C58.1943 8.8202 57.896 8.8431 57.6315 8.88623ZM110.013 12.643C108.678 12.8327 107.54 13.0163 107.484 13.0511C107.414 13.0949 107.382 13.8218 107.382 15.4047V17.695L106.402 17.7211L105.422 17.7472L105.398 19.8391L105.373 21.9311H106.378H107.382L107.385 24.9426C107.388 28.5287 107.497 30.9423 107.693 31.7951C107.926 32.8078 108.332 33.4615 109.056 33.9908L109.415 34.2529H112.865C114.763 34.2529 116.315 34.222 116.314 34.184C116.313 34.146 116.034 33.9832 115.694 33.8223C114.866 33.4302 114.024 32.7922 113.693 32.3059C113.037 31.3441 112.943 30.521 112.943 25.7266V21.9311H114.992H117.041L117.066 20.0433L117.091 18.1556L119.916 26.0799C121.471 30.4383 122.754 34.0739 122.769 34.1591C122.811 34.3977 121.864 36.5344 121.186 37.7312C120.26 39.3659 118.872 41.2542 117.969 42.1092C117.811 42.2577 117.683 42.4135 117.683 42.4552C117.683 42.4971 119.064 42.5203 120.753 42.507L123.822 42.4828L128.867 30.2989C131.641 23.5978 133.936 18.0212 133.966 17.9066L134.021 17.6983L131.484 17.7227L128.948 17.7472L127.372 21.8851C126.506 24.161 125.785 26.0573 125.771 26.0991C125.757 26.1408 125.176 24.3202 124.479 22.0531C123.782 19.786 123.173 17.8794 123.126 17.8162C123.058 17.7266 121.922 17.7012 117.991 17.7012H112.943V14.9886V12.2759L112.692 12.2871C112.554 12.2932 111.349 12.4534 110.013 12.643ZM58.3402 17.4607L55.7422 17.843L55.719 26.048L55.6956 34.2529H58.4764H61.2572V25.6552C61.2572 17.5243 61.2485 17.0581 61.0976 17.0679C61.01 17.0737 59.769 17.2505 58.3402 17.4607ZM74.8906 17.2093C73.5006 17.5099 72.3354 18.1942 71.1275 19.4194L70.3781 20.1796L70.3527 18.9634L70.3272 17.7472H67.8204H65.3136L65.2904 26.0001L65.2671 34.2529H68.0479H70.8286L70.8297 29.5403C70.8309 24.511 70.8423 24.3611 71.2939 23.449C71.5509 22.9297 72.0719 22.4377 72.6406 22.1771C72.966 22.0279 73.2487 21.9831 73.8823 21.9805C74.954 21.9761 75.3913 22.1961 75.7966 22.9438L76.0701 23.4483L76.0963 28.8506L76.1226 34.2529H78.8994H81.6762V28.2825C81.6762 21.8692 81.647 21.3481 81.2218 20.1728C80.7776 18.9451 80.0657 18.1274 78.9934 17.6135C77.8904 17.0848 76.2251 16.9208 74.8906 17.2093ZM91.872 17.2014C89.2281 17.684 86.9646 19.4676 85.8175 21.972C84.5548 24.7288 84.7558 28.5431 86.2887 30.9137C86.7555 31.6355 87.8867 32.7567 88.5705 33.1751C89.7559 33.9008 91.1158 34.2529 92.7333 34.2529C93.9778 34.2529 94.8616 34.0527 95.965 33.5206L96.717 33.158V34.0228C96.717 35.0711 96.5941 35.6986 96.2576 36.3679C95.5823 37.7111 94.2076 38.3797 92.3415 38.2726C90.8357 38.1861 89.1223 37.4817 87.2186 36.1664C86.774 35.8592 86.3894 35.6288 86.3639 35.6545C86.3385 35.6801 86.3463 36.9017 86.3812 38.3691L86.4445 41.0371L87.7108 41.4678C91.3053 42.6906 94.4532 42.8343 97.0831 41.8954C98.0532 41.5491 98.7227 41.1306 99.5265 40.3679C101.067 38.9059 101.802 37.1653 102.003 34.4958C102.109 33.1031 102.13 17.8217 102.027 17.7695C101.989 17.7505 100.926 17.7734 99.6649 17.8203L97.3711 17.9056L96.4966 17.6117C94.8688 17.0647 93.356 16.9305 91.872 17.2014ZM96.0562 21.5577L96.5347 21.7698V25.6128V29.4557L96.0922 29.7834C95.3074 30.3645 94.7512 30.5728 93.9823 30.5738C93.4194 30.5745 93.202 30.5285 92.7513 30.3134C91.7498 29.8355 90.9256 28.6815 90.6505 27.3724C90.0986 24.7457 91.261 22.2113 93.3638 21.4562C94.0482 21.2104 95.3863 21.2608 96.0562 21.5577Z" fill="white"/>
</svg>
